<?xml version="1.0" standalone="no"?>
<!DOCTYPE svg PUBLIC "-//W3C//DTD SVG 20010904//EN"
 "http://www.w3.org/TR/2001/REC-SVG-20010904/DTD/svg10.dtd">
<svg version="1.0" xmlns="http://www.w3.org/2000/svg"
 width="2370.000000pt" height="2370.000000pt" viewBox="0 0 2370.000000 2370.000000"
 preserveAspectRatio="xMidYMid meet">
<metadata>
Created by potrace 1.14, written by Peter Selinger 2001-2017
</metadata>
<g transform="translate(0.000000,2370.000000) scale(0.100000,-0.100000)"
fill="#000000" stroke="none">
<path d="M13508 23695 c-2 -1 -25 -5 -53 -9 -68 -8 -101 -18 -182 -57 -37 -18
-81 -35 -97 -38 -21 -5 -30 -13 -33 -31 -4 -29 -1 -27 -41 -33 -55 -9 -96 -51
-157 -163 -49 -89 -65 -106 -115 -129 -32 -14 -45 -29 -66 -73 -14 -29 -27
-61 -29 -71 -2 -9 -10 -34 -18 -56 -28 -79 -60 -257 -73 -410 -11 -128 -10
-139 9 -166 17 -25 18 -28 2 -65 -15 -37 -15 -40 4 -52 17 -12 18 -18 9 -40
-6 -15 -10 -56 -10 -92 1 -36 -2 -83 -7 -105 -7 -40 4 -105 20 -115 4 -3 4
-23 -2 -45 -16 -68 -11 -194 10 -277 11 -43 43 -131 70 -195 27 -65 70 -174
96 -243 25 -69 52 -139 60 -157 8 -17 15 -34 15 -38 0 -20 156 -326 209 -410
34 -53 61 -98 61 -101 0 -2 23 -38 50 -80 28 -41 50 -77 50 -80 0 -9 152 -234
163 -241 25 -16 57 -66 57 -90 0 -13 11 -41 25 -61 23 -34 25 -43 19 -113 -6
-68 -4 -82 19 -132 29 -63 52 -80 99 -71 34 7 77 7 158 3 26 -2 60 4 80 14 61
29 119 46 125 37 7 -12 5 -13 -141 -66 -71 -25 -133 -50 -137 -54 -5 -4 10
-15 32 -24 23 -9 41 -20 41 -25 0 -6 -21 -13 -46 -17 -40 -6 -48 -11 -60 -40
-20 -47 -17 -87 7 -131 12 -21 33 -58 47 -83 14 -25 50 -88 80 -140 32 -57 54
-107 55 -125 0 -16 -1 -48 -2 -69 l-1 -39 -35 39 c-19 21 -32 32 -29 23 4 -14
9 -42 13 -86 3 -28 33 -43 86 -42 40 1 61 -4 85 -21 l31 -22 -60 -44 -60 -43
21 -43 c11 -24 33 -64 50 -90 l29 -46 -21 -38 c-11 -22 -20 -43 -20 -48 0 -5
18 -26 41 -47 35 -32 39 -40 30 -58 -9 -17 -2 -51 37 -180 l49 -159 -19 -30
c-25 -40 -29 -78 -12 -119 14 -32 13 -33 -22 -57 -35 -23 -35 -24 -12 -31 59
-17 76 -27 71 -44 -3 -13 5 -20 38 -30 47 -14 43 -22 -18 -40 -38 -10 -43 -15
-43 -41 0 -32 30 -70 54 -70 13 0 13 -5 0 -36 -16 -38 -7 -64 22 -64 8 0 14
-3 15 -7 0 -5 2 -15 4 -23 13 -67 14 -153 1 -173 -16 -25 -15 -33 8 -99 11
-35 13 -55 6 -73 -49 -128 67 -302 213 -321 l49 -7 -33 -31 c-19 -17 -56 -49
-82 -70 -56 -46 -52 -51 43 -60 147 -15 161 -18 176 -42 20 -29 2 -70 -24 -58
-9 4 -32 9 -49 12 -41 5 -46 -19 -7 -36 21 -10 23 -14 12 -25 -22 -23 -68 -50
-68 -41 0 5 9 15 20 22 25 16 25 24 -1 40 -24 15 -53 1 -96 -47 -59 -64 -71
-135 -43 -252 16 -67 32 -99 64 -130 19 -17 26 -34 26 -62 0 -26 11 -54 36
-91 29 -44 34 -58 25 -73 -5 -11 -8 -35 -6 -54 2 -19 7 -55 9 -81 8 -63 20
-91 51 -121 25 -23 26 -26 13 -53 -14 -30 -13 -74 2 -74 5 0 11 8 14 18 3 9 2
-16 -1 -57 -5 -69 -4 -73 14 -67 13 4 26 -1 37 -13 20 -22 28 -88 14 -115 -8
-14 -5 -24 8 -41 11 -13 32 -40 49 -61 19 -24 31 -52 35 -82 4 -41 8 -47 37
-54 20 -5 35 -17 42 -36 6 -15 22 -45 36 -67 41 -66 64 -124 67 -166 2 -33 7
-43 26 -50 35 -14 69 -11 87 7 16 16 16 29 0 112 -2 9 -4 20 -4 23 -1 4 -10 9
-22 12 -21 6 -23 3 -34 -48 l-7 -30 -18 40 c-11 22 -19 43 -20 46 0 7 111 31
117 25 6 -6 73 -244 73 -261 0 -13 -8 -11 -47 10 -27 14 -51 25 -55 25 -4 0 1
-22 12 -50 11 -27 16 -52 11 -54 -5 -3 -16 16 -26 42 -24 63 -32 71 -63 66
-15 -3 -28 -7 -30 -9 -2 -2 13 -24 32 -50 45 -58 51 -83 33 -127 -14 -34 -14
-35 20 -58 l34 -23 -21 -22 c-26 -28 -25 -39 4 -59 28 -18 31 -15 41 37 l8 38
63 -70 c67 -73 112 -97 158 -85 26 6 31 19 20 47 -3 9 -13 13 -26 9 -19 -5
-21 -2 -14 28 10 51 4 51 107 -5 20 -11 34 -12 60 -4 19 6 45 12 58 15 36 7
41 12 41 40 0 13 9 29 20 36 24 15 26 34 5 42 -15 5 -10 36 5 36 5 0 21 -22
36 -49 l28 -48 24 28 c21 25 31 29 77 29 56 0 63 -6 60 -52 -1 -16 2 -28 6
-28 5 0 27 25 50 55 41 54 41 56 24 75 -22 24 -21 24 32 37 29 7 45 7 52 0 22
-22 12 -37 -25 -37 l-37 0 25 -32 c41 -52 83 -54 177 -7 42 22 79 39 84 39 4
0 4 -17 1 -39 l-6 -38 53 -8 c72 -12 74 -12 73 0 -1 6 -5 30 -8 55 l-7 45 35
-39 c38 -41 39 -41 51 28 3 21 18 63 32 94 l25 55 16 -26 c9 -15 22 -29 28
-31 13 -5 11 19 -6 82 -11 40 -5 40 38 0 l35 -33 -7 78 c-3 42 -4 77 -2 77 2
0 13 -15 25 -32 12 -20 21 -27 22 -18 7 71 4 102 -12 145 -23 60 -24 79 -4 95
12 10 19 1 44 -55 24 -51 35 -66 47 -61 8 3 24 6 35 6 16 0 17 3 8 28 -6 15
-12 34 -14 42 -3 14 -38 150 -45 175 -5 16 18 65 30 65 6 0 9 12 7 28 -3 16 5
45 21 74 24 46 24 48 8 73 -15 23 -16 35 -6 94 20 118 15 278 -11 343 -8 18
-8 32 0 46 18 34 13 56 -29 136 -26 49 -40 88 -40 113 0 23 -9 50 -26 74 -34
50 -29 71 21 84 22 6 40 15 39 20 -1 16 -16 128 -20 145 -1 8 -3 27 -3 42 -1
25 -19 52 -41 60 -6 2 -12 37 -15 79 -8 142 -56 206 -180 239 -16 5 -50 16
-75 25 -25 9 -65 19 -90 22 -80 8 -78 20 17 103 l85 75 -66 19 c-36 11 -66 23
-66 27 0 4 33 17 73 30 62 20 80 32 132 84 33 34 67 64 75 67 13 4 12 9 -4 27
-26 29 -38 27 -99 -14 -85 -57 -102 -43 -40 32 32 38 38 54 39 97 2 67 -8 90
-46 106 -23 10 -29 17 -23 29 25 51 -15 247 -53 262 -49 19 -88 78 -122 189
-11 36 -32 96 -46 135 -23 58 -25 73 -15 92 11 20 9 28 -14 60 -23 33 -24 38
-11 57 20 29 18 52 -7 70 -18 12 -20 21 -15 50 6 33 5 36 -17 36 -14 0 -38 3
-54 6 l-29 6 2 76 c2 43 4 110 5 151 l2 74 -64 62 c-55 53 -69 62 -92 58 -45
-9 -31 5 38 36 77 35 82 53 31 101 -26 25 -35 43 -39 77 -4 34 -13 54 -42 83
-43 44 -43 66 2 95 18 11 32 23 33 28 0 4 -12 26 -27 48 l-27 41 -14 -41 c-8
-23 -16 -41 -18 -39 -4 4 -10 43 -19 118 -4 30 -8 66 -10 80 -2 14 -7 50 -10
80 -3 30 -8 66 -10 80 -3 24 -7 50 -21 175 -3 33 -12 71 -19 85 -17 32 -71 65
-81 49 -16 -26 -84 -165 -84 -171 0 -4 14 -5 30 -1 36 7 37 2 5 -44 -18 -28
-22 -40 -13 -50 19 -24 42 -13 81 37 21 28 43 50 48 50 12 0 10 -3 -54 -98
-45 -68 -51 -73 -76 -67 -25 5 -29 3 -33 -19 -4 -20 1 -27 34 -42 21 -10 38
-24 38 -33 0 -9 -10 -48 -23 -87 -28 -86 -22 -127 22 -142 16 -6 43 -8 60 -6
17 3 31 1 31 -4 0 -6 -25 -33 -55 -60 -58 -53 -65 -66 -39 -76 30 -12 53 -6
65 17 12 22 28 37 41 37 4 0 -15 -34 -42 -76 l-49 -75 18 -47 c10 -26 24 -64
31 -85 12 -37 14 -39 49 -35 l36 3 0 -60 c-1 -64 -16 -105 -40 -105 -22 0 -18
-15 7 -32 21 -14 22 -18 10 -64 -24 -96 -10 -232 30 -281 7 -9 6 -29 -2 -61
-11 -46 -9 -54 17 -113 25 -58 28 -75 28 -185 0 -70 5 -127 11 -135 28 -36 56
-129 79 -265 9 -47 23 -96 31 -110 12 -18 15 -37 10 -72 -5 -39 0 -62 25 -127
18 -46 31 -102 32 -132 3 -71 20 -88 127 -130 l25 -10 -38 -18 c-20 -9 -37
-20 -38 -24 -5 -44 -13 -70 -30 -103 -25 -48 -20 -64 20 -73 17 -4 31 -13 31
-21 0 -15 -48 -206 -54 -211 -1 -2 5 -34 14 -72 14 -56 18 -166 7 -178 -1 -1
-19 14 -40 32 l-38 33 22 16 c22 15 22 16 -25 36 -26 11 -52 20 -57 20 -18 0
-8 17 16 28 27 12 32 27 14 38 -6 3 -22 30 -35 60 -35 79 -55 85 -166 53 -44
-12 -49 -12 -61 5 -8 11 -25 18 -43 17 -30 -1 -124 -8 -146 -10 -7 0 -26 -12
-42 -26 -16 -14 -30 -25 -30 -25 -1 0 -16 -4 -33 -9 -59 -17 -44 6 35 51 80
47 102 54 211 64 36 4 73 8 81 10 8 1 17 3 19 3 2 1 -4 9 -13 20 -18 19 -16
21 29 30 5 1 11 -13 13 -31 5 -42 4 -41 38 -27 16 7 34 13 39 15 6 1 31 11 57
23 36 15 46 24 42 36 -5 13 -20 16 -73 14 l-66 -2 -1 39 c-1 21 -2 45 -3 52
-1 10 -22 12 -91 9 -105 -5 -126 10 -57 41 203 91 186 81 175 113 -9 27 -13
29 -49 23 -47 -8 -49 1 -8 36 l32 26 -28 42 c-31 47 -30 47 -152 28 -130 -19
-100 12 47 49 3 0 30 9 60 19 53 19 54 19 32 34 -26 17 -28 39 -6 63 24 26 0
114 -38 142 -34 25 -35 32 -6 34 44 4 69 25 68 58 -3 47 -1 53 21 74 21 19 21
21 3 94 -1 4 -2 12 -3 17 0 6 -27 10 -63 9 -35 -1 -94 -1 -131 0 l-69 1 32 27
c29 24 33 25 42 10 8 -15 17 -11 68 31 l60 47 -30 14 -29 14 30 43 c34 50 38
45 -71 84 -36 13 -67 25 -68 26 -2 1 10 41 27 89 l30 86 -29 6 c-35 6 -37 11
-13 28 15 11 20 10 35 -7 9 -11 22 -35 28 -54 20 -60 28 -36 14 44 -16 92 -20
102 -35 102 -7 0 -9 -9 -5 -26 10 -38 -24 -28 -40 12 -12 30 -11 35 33 98 50
73 50 93 2 103 l-32 6 24 19 24 19 -40 -2 c-22 0 -44 -1 -48 0 -4 1 4 21 18
45 30 51 30 51 -70 55 -38 1 -71 4 -72 5 -2 2 25 107 43 168 5 15 9 16 52 2
26 -7 48 -14 50 -14 1 0 2 9 2 19 0 14 -7 19 -27 18 -77 -1 -95 4 -124 32 -33
33 -37 71 -15 126 13 31 13 36 -2 44 -15 9 -15 11 -1 28 35 39 30 61 -22 111
-27 26 -49 52 -49 57 0 6 14 24 30 40 41 39 38 74 -7 94 -18 8 -33 18 -33 22
0 4 21 10 46 14 56 8 65 27 30 64 l-26 27 30 22 c37 27 39 45 5 36 -35 -9 -31
0 12 26 l38 22 -38 19 c-40 21 -43 29 -26 61 10 19 9 19 -20 13 -38 -8 -38 -3
-6 39 14 18 25 35 25 37 0 2 -40 4 -90 4 -91 -1 -108 7 -75 35 19 16 19 25 -1
44 -21 22 -77 20 -124 -4 -37 -19 -43 -19 -69 -6 -16 9 -31 13 -33 11 -3 -3
-25 -9 -49 -14 -97 -20 -116 -28 -150 -62 -11 -11 -33 -19 -54 -19 -42 0 -44
5 -7 24 31 17 27 18 -80 16 -42 -1 -79 3 -82 8 -7 12 137 51 208 56 30 3 59 7
63 9 5 3 24 8 43 11 43 7 246 61 280 74 33 13 56 39 75 86 l16 39 -35 -21 -36
-21 15 30 c9 16 31 37 50 46 38 18 37 33 -1 33 -25 0 -32 18 -12 38 12 12 10
16 -47 87 -26 34 -28 38 -12 49 15 12 14 18 -12 73 -46 97 -46 99 -9 107 l33
7 -45 40 -45 39 31 0 c51 0 83 55 38 66 -32 8 -45 32 -32 59 8 17 3 35 -21 83
-32 64 -34 65 -120 74 -41 5 -35 25 6 21 39 -3 96 25 107 53 3 8 1 35 -5 60
-11 42 -9 70 5 106 6 12 -1 21 -28 33 -66 31 -117 112 -140 222 -6 27 -4 33
16 44 13 6 24 13 26 14 1 1 -7 23 -18 49 -21 49 -19 69 4 60 7 -3 19 2 26 11
11 14 11 28 -3 88 -9 40 -19 83 -21 97 -3 14 -5 25 -6 25 -1 0 -3 8 -5 19 -2
10 -19 44 -39 75 -21 35 -33 65 -30 77 3 12 -7 36 -29 64 -63 84 -82 136 -80
220 l2 75 -45 50 c-40 46 -42 51 -25 59 18 8 17 12 -16 73 -27 49 -37 79 -40
131 -5 55 -15 86 -60 177 -78 156 -148 273 -228 380 -193 261 -454 452 -653
480 -51 7 -130 13 -134 10z"/>
<path d="M8313 23082 c-18 -12 -36 -83 -34 -142 1 -48 -3 -62 -30 -99 l-32
-42 -15 32 c-9 18 -18 27 -19 22 -6 -17 -292 42 -393 80 -30 12 -78 21 -106
21 -46 0 -57 -4 -105 -44 -91 -75 -198 -187 -205 -214 -3 -14 -4 -32 -1 -40 4
-9 -4 -16 -25 -20 -46 -9 -58 -24 -58 -72 0 -46 -12 -81 -43 -127 -17 -25 -18
-36 -10 -87 8 -52 7 -61 -10 -78 -18 -19 -18 -19 13 -32 30 -12 30 -13 13 -33
-17 -19 -17 -20 4 -34 19 -13 20 -18 11 -51 -9 -32 -8 -38 11 -51 20 -13 20
-15 6 -31 -14 -16 -13 -18 15 -30 16 -7 30 -15 30 -18 0 -3 -11 -19 -24 -37
l-24 -31 34 -28 c34 -27 46 -68 24 -81 -14 -9 -12 -47 5 -89 15 -36 51 -172
61 -231 3 -16 11 -55 19 -85 7 -30 12 -82 10 -115 -3 -54 0 -70 37 -145 53
-109 59 -169 28 -272 -29 -98 -47 -134 -75 -152 -33 -22 -85 -30 -86 -14 -1 7
-3 29 -5 48 -2 19 -33 95 -69 168 -56 113 -66 143 -71 199 -4 64 -12 90 -21
67 -2 -6 -10 -19 -17 -29 -13 -18 -14 -18 -25 4 -11 19 -9 27 15 58 21 28 23
35 10 30 -41 -16 -64 -18 -71 -6 -5 7 -4 10 3 5 13 -8 20 12 27 87 6 51 4 57
-13 57 -27 0 -29 4 -22 65 3 30 2 55 -3 55 -26 0 -65 -63 -75 -120 -15 -85
-34 -111 -30 -42 2 28 0 52 -4 52 -11 0 -78 -83 -78 -97 0 -29 21 -51 62 -68
28 -11 44 -13 46 -6 6 19 19 12 47 -29 26 -38 28 -67 3 -42 -31 31 -38 0 -8
-38 22 -29 26 -50 8 -50 -7 0 -24 -9 -37 -19 -24 -18 -24 -19 -4 -25 21 -7 21
-7 -5 -54 -46 -86 -29 -194 46 -283 20 -25 23 -34 14 -53 -9 -19 -5 -31 19
-67 19 -30 29 -57 29 -84 1 -22 6 -52 13 -66 18 -38 107 -142 142 -164 17 -11
35 -31 40 -45 25 -60 117 -235 152 -287 21 -32 65 -86 98 -120 33 -34 81 -95
107 -135 47 -73 138 -174 180 -202 13 -8 54 -22 92 -31 69 -15 85 -12 86 18 0
4 5 7 11 7 8 0 9 -15 5 -45 -7 -43 -6 -45 18 -45 59 0 128 -23 158 -52 66 -64
141 -67 268 -10 90 40 235 100 238 98 1 -2 -2 -24 -7 -49 -4 -26 -6 -47 -2
-47 3 0 34 9 69 19 43 13 62 16 63 8 0 -7 2 -20 4 -29 2 -13 -7 -20 -38 -28
-23 -6 -58 -15 -77 -21 -51 -13 -52 -13 -44 27 6 33 5 35 -13 26 -10 -6 -25
-22 -33 -36 -14 -26 -23 -30 -73 -26 -22 1 -40 -12 -93 -66 -61 -63 -65 -71
-59 -102 6 -32 7 -33 24 -18 20 18 41 21 41 6 0 -5 -24 -33 -54 -62 -53 -51
-55 -55 -52 -101 2 -42 -1 -51 -21 -64 -32 -21 -29 -28 17 -54 45 -25 49 -34
20 -42 -11 -3 -20 -11 -20 -17 0 -8 9 -10 25 -6 21 5 25 2 29 -26 5 -30 14
-140 15 -180 1 -12 16 -20 56 -28 55 -11 106 -44 126 -81 8 -16 5 -26 -15 -50
-40 -47 -13 -78 52 -59 44 12 59 5 81 -38 l18 -35 14 31 c8 18 16 32 19 32 3
-1 25 -11 49 -24 l43 -23 48 26 c27 14 51 23 55 20 5 -6 -13 -98 -21 -108 -2
-2 -15 9 -28 24 l-25 29 -6 -30 c-4 -16 -8 -33 -9 -39 -2 -5 -14 7 -27 27 -13
21 -26 38 -29 38 -3 0 -20 -9 -38 -20 l-34 -21 28 -36 c26 -34 26 -37 9 -49
-10 -7 -22 -15 -28 -17 -9 -3 -11 -34 -5 -68 8 -39 69 -106 122 -136 16 -9 21
-21 21 -56 1 -55 26 -97 61 -97 25 0 74 -39 74 -59 0 -6 -19 -38 -42 -71 -22
-33 -39 -62 -37 -63 10 -7 61 -27 69 -27 6 0 10 8 10 18 0 12 14 25 39 36 l38
18 72 -34 71 -33 -95 -70 c-52 -38 -95 -76 -95 -83 0 -23 29 -82 43 -88 8 -3
36 -39 62 -81 46 -72 48 -77 36 -107 -7 -17 -15 -51 -18 -76 -4 -40 -1 -49 23
-73 14 -15 31 -27 35 -27 5 0 9 -26 9 -59 0 -56 -1 -58 -24 -54 -35 7 -42 -26
-16 -72 11 -20 38 -69 61 -108 47 -84 80 -115 132 -124 30 -4 38 -10 34 -23
-3 -11 10 -33 32 -58 29 -31 44 -40 71 -41 68 -1 90 -11 73 -33 -21 -27 -22
-59 -2 -79 17 -17 38 -21 109 -22 33 0 109 11 119 18 5 2 14 -1 20 -9 9 -10 3
-17 -27 -30 -39 -18 -68 -59 -77 -108 -5 -26 -4 -27 22 -17 20 7 29 7 34 -3
29 -51 28 -51 120 -4 100 51 153 69 192 64 27 -3 26 -4 -42 -75 -87 -90 -107
-131 -110 -225 -1 -16 -18 -47 -45 -78 -35 -41 -48 -67 -62 -123 -18 -78 -62
-175 -89 -197 -48 -40 -55 -108 -19 -200 9 -25 18 -66 19 -91 3 -85 88 -209
143 -209 32 0 164 -88 158 -105 -6 -19 22 -61 51 -75 15 -8 42 -27 59 -43 l31
-28 6 30 c8 40 44 43 53 5 7 -28 -7 -44 -38 -44 -21 0 -21 1 -7 -38 10 -28 13
-30 36 -21 15 5 30 6 34 2 4 -4 9 -41 10 -81 l2 -72 24 16 c31 20 36 15 21
-23 -10 -26 -8 -34 11 -62 l23 -32 35 27 35 27 -6 -30 c-7 -28 -5 -30 26 -29
l33 1 2 -63 c1 -72 12 -92 87 -164 71 -69 93 -82 139 -83 39 0 41 -2 86 -76
65 -107 75 -119 106 -125 34 -6 42 -14 88 -89 20 -33 45 -70 54 -82 l18 -23
49 44 49 43 24 -45 c29 -55 26 -70 -10 -42 -30 24 -61 20 -77 -10 -8 -15 -5
-23 12 -40 25 -23 32 -24 59 -9 17 9 19 7 15 -13 -2 -13 -7 -31 -11 -41 -4 -9
-4 -28 -1 -42 6 -23 9 -24 28 -14 12 6 31 20 42 30 20 19 20 19 31 -8 10 -24
9 -32 -7 -55 -11 -16 -16 -28 -11 -29 4 0 27 -1 51 -1 l42 0 0 -39 c0 -48 15
-56 73 -40 23 7 50 15 60 18 18 5 18 3 2 -27 -12 -24 -20 -29 -28 -21 -19 19
-36 12 -52 -20 -29 -55 -13 -63 53 -30 63 32 104 41 142 31 22 -5 17 -9 -43
-37 -68 -32 -94 -64 -81 -98 8 -19 0 -20 70 14 32 16 82 51 109 79 43 43 208
142 237 142 21 0 3 -18 -45 -43 -77 -40 -101 -62 -94 -81 8 -20 14 -17 156 67
47 28 96 52 109 53 13 0 30 7 38 15 12 13 10 19 -18 48 l-33 33 45 40 c31 28
51 38 67 35 13 -2 23 0 23 4 0 13 -58 40 -64 30 -6 -9 -46 -22 -46 -15 0 13
80 89 111 105 48 24 58 24 28 0 l-23 -18 21 -11 c18 -10 28 -6 69 28 60 49 67
62 53 97 l-11 28 -15 -29 c-18 -34 -30 -22 -27 26 3 51 3 51 19 38 12 -10 18
-8 33 10 l19 23 13 -47 c7 -25 15 -46 17 -46 3 0 37 26 76 58 107 85 113 87
126 52 10 -31 26 -39 33 -18 3 7 0 24 -5 39 -13 33 -4 57 25 68 35 13 103 71
85 71 -26 0 -45 37 -38 73 4 18 5 42 3 55 -4 28 -29 23 -79 -15 -39 -29 -41
-46 -8 -75 l24 -21 -31 -39 c-32 -41 -63 -59 -85 -51 -22 9 -14 23 22 40 44
21 51 42 27 90 -40 79 -38 98 11 94 14 -2 17 6 17 38 0 45 5 49 32 24 28 -25
24 0 -17 107 -19 50 -35 94 -35 96 0 2 11 2 25 -2 22 -5 24 -3 22 25 -2 36 -1
36 -57 16 -73 -26 -67 4 7 36 l45 19 -21 34 -21 33 30 38 c30 37 35 57 15 56
-6 0 -29 -3 -53 -7 -24 -4 -45 -4 -48 -2 -2 3 1 19 7 37 13 37 2 52 -32 44
-29 -8 -23 10 10 30 l28 17 -38 40 c-38 39 -43 55 -41 111 1 18 -12 40 -43 72
-49 51 -81 137 -84 223 -1 11 -12 33 -25 49 -24 28 -41 80 -30 96 3 5 13 5 25
-1 10 -6 19 -9 19 -7 0 2 -20 39 -45 83 -25 43 -46 85 -46 94 -7 80 3 113 20
70 9 -23 10 -21 10 16 1 58 -20 111 -76 194 -26 40 -51 77 -56 83 -4 7 -17 34
-28 60 -19 45 -23 48 -49 42 -36 -8 -42 3 -46 74 -10 186 -86 313 -260 434
-64 44 -79 46 -219 35 -63 -6 -72 -9 -98 -40 -54 -64 -70 -76 -116 -88 -25 -6
-48 -12 -51 -12 -3 0 -15 -4 -27 -9 -26 -10 -29 -3 -9 20 10 13 46 103 46 118
0 2 -6 3 -14 3 -8 0 -21 7 -29 14 -13 13 -23 11 -80 -20 -72 -38 -81 -47 -91
-86 -10 -45 -153 -174 -204 -184 -47 -9 -47 12 0 44 57 40 126 113 177 187 41
58 41 59 20 67 -13 5 -31 10 -41 11 -35 6 -27 14 43 46 57 26 69 36 64 49 -20
48 -18 55 26 94 43 37 43 38 24 53 -11 9 -28 22 -38 30 -24 21 -28 19 -23 -10
3 -14 2 -25 0 -25 -3 0 -32 16 -65 35 l-59 34 -74 -34 c-41 -19 -123 -58 -183
-86 -420 -200 -440 -209 -485 -209 -54 0 -92 -20 -172 -90 -37 -33 -77 -62
-89 -65 -86 -19 -116 -25 -141 -25 -25 0 -18 7 50 48 43 27 107 67 140 90 47
32 71 42 102 42 42 0 72 14 370 173 68 36 158 80 200 97 219 91 319 175 310
263 -2 24 -11 36 -39 52 -80 44 -115 88 -160 195 -12 30 -39 78 -60 106 -21
28 -45 70 -54 93 -16 45 -21 140 -7 142 19 2 44 8 48 11 5 6 -25 48 -34 48 -4
0 -25 -16 -46 -35 -21 -19 -42 -33 -45 -31 -3 2 -28 7 -56 11 -27 3 -51 8 -53
10 -3 2 16 9 41 16 l46 11 -6 43 c-5 37 -3 44 15 49 12 4 34 0 50 -8 52 -27
49 -10 -12 67 -14 18 -17 16 -51 -22 -37 -41 -55 -45 -55 -13 0 20 -47 175
-64 211 -14 31 -46 51 -84 54 l-31 2 30 29 c26 25 29 35 25 66 -3 19 -9 48
-15 63 -10 25 -14 27 -56 23 -25 -2 -45 -1 -45 1 0 2 11 19 24 36 50 66 41
111 -27 127 -33 7 -39 5 -49 -14 -14 -26 -28 -36 -53 -36 l-20 1 20 15 c11 8
19 22 17 29 -2 8 2 33 8 56 6 23 9 43 7 45 -3 3 -32 -11 -65 -31 -33 -19 -63
-35 -67 -35 -3 0 6 19 20 43 38 62 61 116 74 177 11 49 10 56 -6 67 -55 39
-66 50 -88 87 -13 23 -26 57 -29 76 -3 20 -21 85 -40 146 -38 122 -45 156 -52
264 -7 104 -11 127 -39 189 l-25 53 -25 -16 c-14 -10 -38 -19 -53 -20 -32 -4
-180 26 -181 37 -4 36 3 48 47 75 39 24 52 39 66 78 10 27 30 71 44 97 22 41
24 50 12 58 -40 24 -41 25 -30 54 8 22 7 37 -4 65 -8 20 -17 57 -21 81 -10 73
-24 114 -49 152 -16 23 -24 48 -23 75 1 23 -10 64 -27 101 -26 59 -27 62 -10
90 14 24 15 34 5 62 -29 79 -53 220 -55 319 -3 101 -5 111 -66 280 -125 347
-278 673 -453 965 -23 38 -170 260 -189 285 -10 14 -58 75 -105 135 -133 170
-435 463 -460 447z"/>
<path d="M6985 22119 c-4 -5 -15 -38 -25 -72 -10 -34 -25 -84 -34 -111 l-15
-48 39 6 c37 6 39 5 42 -24 l3 -29 35 17 c40 18 138 114 159 155 17 32 8 46
-18 30 -16 -10 -23 -7 -47 18 l-28 29 27 0 c24 0 45 15 35 26 -10 9 -168 13
-173 3z"/>
<path d="M18437 21919 c-75 -25 -273 -165 -347 -245 -47 -50 -187 -272 -182
-288 2 -4 -4 -13 -11 -20 -8 -6 -20 -32 -27 -57 -7 -28 -29 -66 -54 -95 -37
-43 -43 -56 -45 -104 -2 -30 -10 -71 -18 -90 -20 -47 -31 -85 -38 -131 -3 -20
-17 -65 -30 -98 -20 -49 -25 -76 -24 -148 1 -48 -6 -131 -16 -183 -24 -138
-25 -145 -9 -175 18 -35 21 -89 11 -195 -8 -74 -6 -92 11 -135 16 -40 19 -72
19 -156 -1 -100 0 -109 26 -147 15 -23 27 -50 27 -61 0 -78 61 -261 104 -311
12 -13 107 -206 127 -255 34 -86 56 -124 123 -213 80 -106 102 -126 149 -137
15 -4 28 -11 28 -16 1 -5 3 -13 4 -19 1 -5 3 -14 4 -19 0 -5 16 -15 35 -21 19
-6 37 -16 39 -23 2 -7 -14 -36 -36 -66 l-40 -54 19 -35 c18 -33 18 -34 -1 -48
-45 -33 -85 -77 -91 -101 -4 -14 -4 -49 -1 -78 3 -33 0 -68 -8 -93 -18 -52 -4
-104 35 -134 17 -12 30 -27 30 -34 0 -24 -21 -25 -41 -2 -18 21 -20 21 -15 3
11 -44 86 -385 86 -394 0 -4 -19 -11 -41 -14 -23 -3 -46 -11 -50 -19 -12 -19
17 -31 51 -20 34 12 40 8 40 -30 0 -22 -8 -33 -30 -46 -30 -17 -30 -18 -24
-77 6 -69 8 -72 29 -55 9 7 17 11 19 9 3 -3 61 -263 67 -296 4 -22 -3 -34 -25
-43 -16 -6 -23 -15 -21 -27 14 -71 14 -70 52 -76 42 -7 79 -37 113 -91 30 -49
62 -63 147 -64 50 -1 84 -7 109 -20 l38 -19 -35 -11 c-19 -6 -61 -16 -94 -22
-95 -16 -99 -17 -138 -34 -22 -9 -41 -25 -47 -41 -6 -16 -17 -25 -32 -25 -31
0 -56 -17 -43 -29 6 -5 72 -15 147 -22 76 -7 137 -14 135 -15 -6 -6 -66 -13
-154 -18 -96 -6 -177 -30 -170 -50 3 -6 17 -48 33 -92 l28 -82 54 -4 c61 -5
87 -27 76 -62 -9 -29 -8 -29 -61 -18 -26 6 -49 10 -50 8 -1 -1 -5 -37 -8 -79
-4 -43 -8 -86 -10 -97 -3 -15 7 -21 58 -33 34 -7 66 -10 71 -5 24 20 25 5 3
-34 -15 -26 -23 -57 -22 -78 3 -67 40 -202 60 -224 18 -19 19 -31 15 -106 l-5
-85 -33 0 c-27 0 -34 -4 -43 -32 -12 -38 -24 -42 -32 -11 -10 37 -15 17 -22
-90 -6 -82 -4 -102 6 -102 9 0 15 14 17 38 1 20 4 46 7 57 2 11 4 28 4 39 1
15 4 16 15 7 11 -9 16 -6 24 19 l11 30 36 -17 c39 -19 38 -13 21 -100 -7 -34
19 -28 34 7 15 35 26 38 33 9 3 -12 10 -18 15 -15 9 5 26 63 23 79 -1 8 35 9
66 1 21 -6 21 -8 8 -33 -13 -27 -13 -27 22 -29 20 -2 39 -5 43 -7 7 -4 5 -72
-4 -165 -7 -65 -24 -82 -68 -69 -42 12 -43 15 -11 34 31 18 81 124 69 144 -4
6 -22 11 -39 10 l-32 -1 27 -11 26 -12 -25 -43 c-20 -34 -28 -40 -39 -31 -11
9 -16 5 -25 -17 -14 -36 -19 -60 -24 -104 -3 -19 -11 -39 -18 -45 -8 -5 -19
-20 -25 -32 -13 -24 -7 -31 29 -38 12 -2 27 -12 34 -21 11 -16 15 -14 37 19
24 36 25 37 42 18 17 -19 17 -19 -3 -14 -14 4 -21 1 -21 -9 0 -8 -9 -23 -21
-34 -30 -27 -41 -52 -34 -74 8 -24 30 -26 39 -4 4 11 13 14 29 10 12 -4 33 -9
47 -12 43 -8 87 -74 64 -96 -5 -6 -55 4 -86 17 -16 6 -16 2 3 -44 17 -40 27
-51 44 -51 16 0 26 -10 38 -40 12 -31 25 -45 56 -59 23 -10 39 -20 37 -22 -3
-2 -7 -18 -10 -34 l-5 -30 33 37 32 37 63 -16 c59 -15 62 -17 56 -41 -5 -22
-4 -24 17 -18 13 3 28 6 35 6 13 0 10 17 -10 58 -9 19 -7 27 15 48 l25 25 -2
-31 c-3 -43 11 -47 26 -6 10 27 16 33 29 26 9 -5 54 -18 100 -30 100 -25 124
-39 152 -86 l21 -35 26 25 c29 28 25 28 132 -10 l37 -13 5 36 c4 22 1 46 -8
64 -20 37 -19 52 4 80 19 24 19 24 41 4 30 -27 36 -13 38 94 3 80 1 91 -20
115 -15 17 -36 27 -60 29 -43 5 -68 22 -68 46 0 9 -8 28 -17 41 l-18 25 -5
-45 -5 -45 -33 64 c-23 44 -29 62 -19 58 41 -16 98 -27 107 -22 18 11 2 59
-27 82 -28 23 -28 23 -5 23 13 0 40 15 59 34 l36 34 -38 58 c-22 33 -47 68
-57 78 -18 19 -18 19 -18 -22 l0 -41 -31 11 c-42 14 -115 124 -97 145 26 32
47 35 109 13 33 -11 64 -18 68 -16 8 5 7 16 -4 132 -9 88 2 128 56 211 65 99
56 177 -25 214 -37 16 -38 17 -17 28 25 14 27 47 5 72 -15 16 -14 20 5 41 l22
23 -26 8 -25 9 21 17 c21 17 20 18 -65 56 -47 21 -86 42 -86 45 0 4 7 21 16
38 22 44 8 63 -77 103 l-71 34 32 27 c32 26 33 27 49 7 16 -19 17 -19 53 30
37 49 39 50 81 45 49 -6 63 4 73 56 6 29 5 32 -12 26 -12 -4 -29 3 -47 18 -24
21 -26 25 -11 37 14 11 18 10 30 -5 12 -17 14 -16 30 17 10 20 21 34 26 31 5
-3 22 -9 38 -14 25 -7 35 -4 60 17 33 27 34 46 11 106 -18 47 -14 68 12 62 18
-4 26 2 44 32 l22 38 12 -33 c8 -25 14 -30 20 -20 13 20 11 62 -6 84 -19 25
-19 81 0 134 16 47 19 71 8 69 -28 -5 -30 4 -8 44 34 58 32 74 -5 47 l-29 -21
-16 25 c-9 13 -15 41 -14 62 1 22 -2 46 -5 55 -5 12 4 26 29 47 34 27 36 32
24 53 -11 20 -14 21 -17 7 -6 -30 -21 -20 -33 22 -10 32 -10 46 1 68 7 15 13
29 13 32 -1 3 -8 28 -16 57 -15 51 -15 52 14 98 21 33 27 51 20 59 -6 7 -9 23
-7 37 3 13 7 47 11 74 4 28 15 64 25 80 11 18 21 61 25 108 6 72 5 79 -15 95
-31 25 -52 110 -33 138 12 18 10 25 -11 56 -21 32 -22 35 -5 31 55 -15 -26 67
-98 99 -42 19 -44 19 -85 0 -39 -16 -48 -17 -88 -5 -27 8 -59 11 -80 7 -77
-15 -108 -11 -182 24 l-73 35 60 7 c33 3 89 5 125 3 168 -9 357 -9 394 -1 23
5 50 11 60 14 10 2 35 9 54 15 l35 12 -34 29 c-27 23 -30 28 -14 26 33 -4 72
11 79 29 6 15 16 106 18 168 2 52 -4 75 -27 109 l-25 38 15 73 c8 41 15 76 15
79 0 3 12 6 28 8 26 3 27 4 25 63 -2 72 -3 246 -1 410 2 152 -8 260 -37 398
-19 95 -21 116 -10 165 23 116 6 204 -57 283 -40 51 -41 53 -22 68 22 18 21
53 -2 44 -19 -7 -18 14 1 25 14 7 8 27 -39 138 -33 78 -51 133 -45 138 5 6 -9
20 -38 35 -37 21 -49 33 -55 61 -14 60 -40 109 -64 125 -35 23 -29 34 16 30
22 -2 40 -2 40 -1 0 2 -26 23 -57 46 -32 24 -60 45 -63 47 -2 2 9 15 25 28
l30 23 -30 11 c-16 7 -36 14 -44 17 -22 7 -9 13 38 15 l43 3 -28 24 c-16 13
-51 42 -79 64 l-50 41 35 -8 c40 -8 42 -10 -54 70 l-70 58 -11 -39 c-10 -35
-14 -39 -41 -36 -34 4 -49 17 -58 52 -7 23 -6 24 8 7 12 -15 18 -16 35 -7 30
16 26 27 -14 34 -59 11 -43 31 23 28 12 -1 22 1 22 3 0 2 -32 31 -71 65 -57
49 -65 59 -42 54 25 -6 23 -3 -17 28 -148 115 -319 163 -420 120 -25 -11 -56
-32 -70 -47 -67 -75 -90 -95 -109 -95 -23 0 -85 -76 -75 -91 3 -5 9 -7 13 -5
20 13 48 -35 60 -101 12 -63 12 -72 -4 -96 -9 -14 -32 -31 -51 -37 -18 -6 -42
-21 -52 -33 -21 -26 -77 -67 -91 -67 -14 0 -31 -34 -31 -63 0 -28 -39 -67 -69
-70 -18 -1 -21 -7 -21 -48 0 -67 -6 -77 -63 -105 -58 -27 -66 -28 -101 -13
-39 18 -38 34 2 37 20 1 37 4 39 6 2 2 -3 21 -12 42 -21 51 -13 78 29 98 36
17 46 33 46 73 0 14 14 43 32 65 29 37 31 47 34 124 2 47 5 93 8 102 4 10 29
31 57 47 49 29 50 30 29 44 -20 14 -19 15 31 41 37 19 53 33 56 50 7 44 59 84
118 91 17 2 35 9 41 14 12 12 51 73 40 64 -4 -4 -48 4 -98 17 -101 26 -159 27
-231 3z"/>
<path d="M3989 19739 c-62 -9 -200 -76 -269 -129 -160 -125 -266 -284 -375
-564 -45 -115 -48 -144 -23 -209 7 -18 8 -62 3 -130 -10 -124 -10 -269 -2
-400 5 -80 17 -133 67 -299 67 -221 83 -257 129 -305 22 -23 31 -42 31 -66 0
-34 24 -67 50 -67 39 0 49 -65 26 -163 l-14 -59 33 -13 c17 -8 39 -24 47 -37
9 -13 24 -32 34 -43 11 -11 37 -46 58 -78 32 -46 40 -67 41 -106 1 -38 8 -58
31 -86 86 -107 86 -107 81 -157 -3 -36 -1 -48 9 -48 8 0 14 7 14 15 0 32 16
12 40 -47 15 -39 25 -85 26 -120 1 -53 6 -65 65 -155 35 -54 93 -132 129 -173
102 -118 156 -193 204 -288 30 -58 141 -183 210 -236 126 -96 335 -157 409
-120 15 8 27 18 27 22 0 14 79 53 166 82 87 28 101 24 62 -18 -13 -13 -23 -31
-24 -40 -1 -51 -20 -84 -79 -143 -36 -35 -65 -69 -65 -76 0 -7 11 -36 24 -65
13 -29 36 -81 50 -115 66 -159 152 -337 167 -350 8 -6 27 -14 42 -17 50 -9
118 71 79 93 -15 9 -13 14 17 45 41 42 61 46 61 11 0 -30 -22 -66 -68 -112
-36 -36 -34 -57 9 -87 20 -13 21 -19 12 -55 -6 -22 -8 -42 -6 -45 3 -3 18 1
34 9 15 8 30 15 32 15 2 0 2 -20 0 -44 -4 -32 0 -47 12 -57 23 -20 31 -29 76
-85 22 -28 51 -57 64 -64 22 -12 29 -10 62 13 21 15 44 36 51 47 7 11 17 20
23 20 6 0 -1 -14 -16 -32 -26 -31 -27 -35 -20 -118 3 -47 8 -100 11 -117 4
-35 79 -163 96 -163 5 0 6 -10 2 -22 -14 -46 -11 -85 12 -130 13 -26 24 -56
24 -67 0 -28 16 -34 43 -16 l24 16 -2 -44 c-2 -25 -7 -53 -13 -63 -16 -31 -7
-76 27 -128 34 -55 39 -87 16 -106 -25 -21 -18 -30 48 -59 66 -30 127 -89 127
-123 0 -27 -16 -22 -40 12 -32 46 -47 39 -49 -24 -1 -50 1 -56 35 -85 82 -73
156 -104 239 -102 30 0 59 -5 71 -13 18 -14 18 -15 -7 -24 -27 -11 -39 -30
-39 -62 0 -23 126 -66 166 -56 26 7 80 33 236 114 67 35 82 40 110 31 18 -5
40 -17 50 -27 17 -17 17 -19 -10 -47 -15 -17 -44 -45 -65 -62 -23 -21 -38 -45
-42 -67 -8 -40 -38 -76 -65 -76 -27 0 -35 -48 -15 -98 15 -38 15 -42 0 -66
-10 -14 -15 -36 -12 -49 23 -104 73 -284 94 -337 30 -75 89 -167 138 -213 19
-18 41 -49 49 -69 25 -59 41 -69 94 -62 l47 6 -3 -56 c-5 -68 11 -97 68 -126
70 -36 141 -118 135 -158 -3 -31 15 -59 56 -84 14 -9 55 -55 90 -102 l64 -86
17 23 c10 12 18 27 18 34 0 6 5 15 11 19 7 4 10 -22 7 -87 l-3 -94 50 -1 c70
-1 70 -1 73 -31 3 -40 39 -73 79 -73 47 0 69 -14 82 -51 11 -32 17 -33 64 -14
14 6 17 1 18 -26 1 -19 2 -38 4 -44 1 -5 3 -20 3 -33 2 -19 6 -21 30 -15 42
10 59 6 89 -21 27 -25 44 -26 82 -6 9 5 24 2 36 -6 30 -20 67 -23 96 -8 22 11
27 10 37 -7 17 -27 15 -30 -13 -19 -36 14 -39 -3 -10 -50 l26 -41 34 27 c37
28 48 16 20 -20 -18 -24 -19 -58 -3 -74 19 -19 27 -14 34 23 5 31 9 34 34 29
22 -5 32 0 52 26 l25 31 -3 -50 c-3 -40 0 -49 11 -44 8 3 15 9 15 14 0 5 5 9
11 9 5 0 -1 -15 -15 -33 -32 -41 -59 -114 -45 -122 5 -4 17 7 27 24 9 17 20
31 24 31 4 0 21 -20 39 -45 37 -51 49 -56 49 -20 0 17 6 25 18 26 9 0 26 2 37
4 11 2 38 6 60 8 37 3 42 7 67 58 15 30 32 77 38 104 10 43 19 56 61 89 51 39
60 64 21 58 -20 -3 -20 -2 -5 38 16 41 27 44 29 9 1 -10 2 -22 3 -25 4 -21 70
76 73 106 0 3 4 14 8 25 5 12 3 34 -5 52 -12 29 -11 32 16 52 26 19 27 24 17
47 -11 25 -10 29 25 58 25 21 36 37 32 47 -4 10 3 20 22 28 25 11 29 10 42 -8
20 -31 31 -26 31 15 0 41 15 74 33 74 22 0 93 76 117 126 40 82 26 223 -14
145 -9 -17 -21 -31 -28 -31 -11 0 -8 34 13 131 l11 50 41 -6 c38 -6 46 -3 82
28 36 32 40 38 39 83 -1 68 -29 146 -71 197 -19 23 -106 114 -192 202 -87 88
-171 180 -188 205 -42 63 -66 135 -58 182 6 32 2 43 -29 84 -36 46 -41 69 -11
44 23 -19 28 -7 15 41 -17 62 -36 80 -74 72 -46 -9 -110 -4 -134 10 -18 12 3
45 33 53 29 7 29 7 12 65 -9 29 -31 63 -63 95 -27 27 -60 72 -74 99 -20 39
-31 50 -49 50 -45 0 -47 -27 -6 -80 44 -59 33 -71 -19 -19 -27 27 -42 35 -59
30 -20 -5 -25 0 -40 42 -23 63 -22 63 18 46 49 -20 53 -18 45 24 -13 71 -55
112 -114 112 -13 0 -29 6 -35 14 -9 11 -7 15 10 19 12 3 19 12 17 19 -8 22
-42 16 -65 -10 l-22 -26 -7 28 c-6 26 -9 28 -45 22 -37 -6 -38 -5 -30 16 9 25
-4 88 -18 88 -5 0 -12 7 -15 16 -5 13 -1 15 19 10 20 -5 25 -3 25 13 0 32 -25
44 -76 36 -29 -4 -57 -2 -75 6 l-29 12 24 32 c23 30 24 33 9 63 l-15 32 -37
-35 -36 -36 -22 28 c-28 35 -29 43 -2 43 18 0 20 4 14 33 -14 67 -13 67 -46
55 -19 -6 -28 -15 -25 -24 6 -16 -1 -21 -37 -28 -42 -7 -46 -13 -36 -51 8 -27
6 -40 -7 -60 -21 -32 -34 -32 -69 5 -16 17 -32 30 -35 30 -4 0 -21 -21 -39
-46 -52 -72 -106 -120 -169 -150 -31 -15 -71 -38 -88 -51 -30 -23 -98 -55
-144 -68 l-25 -8 20 23 c11 12 60 50 110 83 49 33 119 90 155 126 86 86 159
195 154 229 -1 6 -2 16 -3 22 0 5 -12 17 -26 26 -20 13 -30 14 -60 4 -20 -7
-39 -10 -41 -7 -3 3 8 29 25 59 17 30 31 59 31 64 0 15 -62 40 -90 36 -14 -2
-50 -26 -80 -53 -30 -28 -90 -75 -133 -106 -58 -41 -79 -63 -84 -83 -3 -19
-10 -27 -19 -23 -8 3 -23 -2 -33 -11 -17 -15 -24 -16 -60 -5 -39 11 -43 11
-57 -9 -20 -30 -72 -64 -84 -57 -13 8 -2 29 37 72 45 49 84 94 127 143 123
141 171 190 196 200 34 14 78 77 86 123 3 18 2 28 -3 22 -8 -10 -49 -35 -57
-35 -3 0 -13 28 -22 61 -12 42 -28 73 -51 95 l-34 34 33 1 c18 1 39 1 46 0 6
-1 12 1 12 4 0 5 -134 210 -147 225 -9 10 -21 -24 -17 -48 4 -18 1 -23 -9 -19
-21 8 -39 -8 -51 -44 -6 -18 -16 -34 -22 -36 -9 -3 -10 27 -5 113 1 6 13 16
28 23 l28 13 -23 12 -23 12 26 26 25 26 -42 21 c-42 21 -43 22 -43 74 0 51 -1
52 -30 55 -39 4 -58 -11 -95 -78 l-31 -55 5 44 6 43 -25 -16 c-38 -25 -39 -20
-5 27 38 53 42 76 28 138 -12 52 -18 58 -38 34 -24 -29 -30 -15 -24 55 5 57 3
70 -8 70 -18 0 -80 -124 -103 -202 -23 -81 -55 -103 -60 -41 -2 16 -5 42 -8
58 -3 17 -8 48 -12 70 -3 23 -7 52 -10 65 l-5 24 25 -25 c15 -15 27 -41 30
-64 3 -21 7 -40 9 -42 10 -10 38 77 38 116 -2 84 -79 191 -120 165 -13 -9 -17
-26 -17 -75 -1 -48 -7 -79 -28 -123 -15 -33 -29 -57 -31 -55 -2 2 -15 25 -29
50 l-26 45 29 -4 c24 -3 31 1 44 26 9 17 16 40 16 50 0 20 -45 72 -62 72 -5 0
-9 21 -8 48 1 26 1 53 1 60 -2 26 -30 10 -67 -38 -21 -27 -39 -50 -40 -50 -2
0 -17 27 -35 61 -18 34 -42 65 -55 69 -14 6 -24 21 -29 47 -5 21 -9 43 -11 48
-1 6 -5 26 -9 46 -11 68 -44 144 -73 169 -44 38 -49 56 -45 180 l3 115 -28
-30 c-15 -17 -35 -42 -45 -57 -18 -30 -64 -64 -73 -56 -3 3 3 13 12 23 15 14
15 18 3 26 -14 9 -18 10 -49 13 -31 3 -72 -17 -82 -40 -24 -52 -195 -136 -288
-141 -70 -4 -78 -8 -230 -110 -51 -35 -97 -63 -102 -63 -5 0 -23 -9 -39 -21
-16 -11 -29 -16 -29 -11 0 6 42 44 93 85 66 54 103 77 132 83 69 12 113 73
106 146 -3 31 26 84 64 113 20 17 57 48 82 69 43 38 44 40 22 48 -36 14 -73 4
-86 -23 -18 -36 -43 -56 -85 -67 l-38 -10 4 35 c3 21 -1 48 -11 66 -22 43 -12
48 102 51 l49 1 9 41 c8 43 23 54 75 54 19 0 22 4 16 28 -6 23 -40 100 -50
111 -2 2 -64 -31 -139 -73 -75 -42 -141 -74 -146 -70 -14 8 20 31 73 49 69 24
86 36 103 71 11 23 41 50 95 85 44 28 81 55 81 60 5 37 2 44 -20 47 -14 2 -33
-6 -50 -21 -31 -30 -71 -51 -71 -39 0 5 32 42 71 81 39 40 69 75 66 77 -7 8
-208 -100 -217 -116 -4 -8 -11 -41 -14 -72 -7 -58 -7 -58 19 -58 34 0 24 -15
-19 -30 -28 -9 -41 -7 -83 12 -43 19 -59 34 -104 102 -30 43 -64 95 -77 113
-21 31 -27 34 -62 31 -44 -3 -44 -4 -34 57 8 59 1 84 -42 140 -19 26 -33 50
-30 53 4 3 32 -12 64 -34 47 -34 66 -41 112 -43 30 -2 58 -5 62 -7 16 -10 7
23 -9 38 -32 28 -66 41 -178 69 -90 22 -111 25 -118 14 -4 -8 -39 -24 -77 -36
-39 -12 -73 -25 -75 -29 -2 -4 3 -16 11 -28 14 -20 24 -22 103 -22 l88 0 -5
-25 c-2 -14 -5 -25 -6 -25 0 0 -24 6 -53 14 -44 12 -52 12 -57 0 -3 -8 -2 -14
2 -14 4 0 22 -13 41 -29 l35 -28 -29 1 c-49 2 -39 -21 17 -39 68 -23 74 -28
103 -91 41 -89 42 -101 6 -109 -28 -6 -69 7 -72 23 -1 4 -3 22 -5 41 -3 42
-20 61 -29 32 -9 -28 -23 -26 -63 8 -32 27 -32 29 -14 36 21 6 21 6 -1 42
l-21 37 -11 -41 c-11 -45 -25 -67 -25 -39 0 33 -40 94 -91 140 -51 46 -79 58
-79 33 0 -28 -20 -34 -68 -20 -75 23 -130 51 -142 72 -10 20 -10 20 46 0 69
-23 66 -23 62 -3 -2 9 -31 31 -65 49 l-62 33 45 17 44 17 -32 45 c-43 59 -89
96 -218 173 -58 35 -116 72 -130 83 l-25 19 37 -7 c36 -7 37 -6 35 21 -1 20 4
31 20 39 21 11 21 13 7 33 l-15 22 -25 -30 c-14 -16 -31 -30 -38 -30 -7 0 -25
-11 -40 -25 -31 -28 -48 -31 -65 -11 -9 11 -6 16 19 24 34 12 40 32 10 32 -25
0 -25 8 0 38 l19 23 34 -25 c42 -32 51 -33 45 -2 -4 21 -1 24 39 30 127 17
188 82 155 163 -9 19 -29 39 -55 53 l-42 22 -1 82 c-3 143 -47 226 -183 342
-63 55 -79 73 -75 91 3 15 -2 23 -14 27 -34 11 -65 54 -68 93 -2 21 -3 41 -3
44 -2 13 -126 70 -172 79 -27 5 -75 21 -107 36 -44 20 -66 25 -99 20 -47 -6
-73 0 -73 18 0 6 16 29 36 51 36 40 71 105 80 148 8 44 24 133 30 172 3 22 7
42 7 45 2 7 -43 80 -49 80 -3 0 -14 -5 -25 -11 -19 -10 -20 -8 -13 28 15 85
78 156 122 138 10 -4 51 -10 93 -14 58 -6 94 -17 150 -46 101 -51 254 -141
312 -183 26 -19 51 -31 54 -28 4 4 -19 32 -50 64 -35 36 -57 66 -57 80 0 13
-7 39 -15 59 -10 22 -13 49 -9 70 4 23 0 50 -16 87 -19 47 -25 54 -46 51 -20
-2 -32 8 -62 53 -61 91 -69 102 -75 109 -13 12 -154 28 -198 22z"/>
<path d="M4850 19181 c0 -5 12 -23 26 -38 25 -27 27 -43 12 -102 -2 -9 10 -17
31 -23 41 -11 31 -23 -24 -27 -15 -1 13 -24 118 -96 55 -36 102 -64 105 -60 6
6 -13 42 -60 113 -15 24 -28 47 -28 51 0 5 -15 22 -33 38 -18 16 -44 48 -58
72 -23 41 -89 94 -89 72z"/>
<path d="M15410 19027 c-24 -12 -43 -67 -23 -67 15 0 74 66 67 73 -10 9 -15 9
-44 -6z"/>
<path d="M4970 18867 c0 -8 10 -21 23 -30 12 -8 32 -24 44 -35 31 -30 113 -79
146 -87 55 -14 28 23 -50 69 -43 25 -97 57 -120 71 -32 19 -43 22 -43 12z"/>
<path d="M4900 18740 c0 -5 17 -27 38 -50 31 -31 46 -40 73 -40 67 0 60 15
-26 58 -47 23 -85 38 -85 32z"/>
<path d="M5097 18716 c-12 -30 89 -102 153 -110 47 -5 36 16 -27 54 -32 18
-72 42 -89 52 -27 15 -33 16 -37 4z"/>
<path d="M4926 18632 c-6 -10 41 -82 53 -82 4 0 15 8 25 19 16 17 15 19 -6 33
-44 29 -67 38 -72 30z"/>
<path d="M5134 18552 c3 -5 -17 -16 -45 -26 -27 -10 -53 -25 -58 -34 -5 -9
-16 -13 -30 -9 -11 3 -23 2 -26 -3 -8 -13 124 -143 164 -161 20 -10 30 -18 23
-18 -7 -1 -23 4 -34 10 -25 14 -26 15 64 -115 66 -94 77 -126 43 -126 -26 0
-17 -21 41 -91 60 -74 61 -74 134 -47 l25 9 -24 -25 c-14 -14 -23 -28 -20 -30
2 -2 34 -21 72 -41 59 -32 67 -35 68 -18 0 10 2 27 5 38 22 112 10 171 -32
161 -21 -6 -28 0 -52 40 -15 25 -42 66 -60 90 -17 23 -36 54 -42 68 -10 27
-18 29 -82 26 l-37 -1 14 28 c29 60 21 105 -31 169 -18 23 -41 57 -50 78 -10
20 -22 36 -26 36 -5 0 -7 -4 -4 -8z"/>
<path d="M5244 18494 c14 -59 28 -85 44 -79 8 3 31 8 51 11 44 7 48 11 35 31
-18 29 -58 53 -98 60 -39 6 -39 6 -32 -23z"/>
<path d="M5382 18366 l-24 -35 52 -97 c77 -144 99 -174 127 -174 15 0 27 8 33
23 12 30 -22 60 -62 53 -15 -2 -30 0 -34 5 -3 5 -1 9 3 9 5 0 18 6 28 14 18
13 16 18 -35 125 -30 61 -56 111 -59 111 -3 0 -17 -16 -29 -34z"/>
<path d="M10615 18080 c-6 -10 19 -65 35 -75 12 -8 50 3 50 14 0 14 -79 71
-85 61z"/>
<path d="M4956 17881 c-4 -6 9 -26 29 -45 41 -40 42 -48 14 -87 -11 -16 -19
-37 -17 -46 3 -15 4 -15 20 0 21 21 20 21 49 -4 l24 -22 -27 7 c-58 14 -33
-17 84 -104 68 -51 130 -95 138 -100 8 -5 12 -11 8 -15 -3 -4 -51 18 -105 48
-54 30 -102 52 -106 50 -14 -9 174 -141 261 -184 105 -52 138 -46 62 11 -30
22 -49 40 -44 40 5 0 43 -9 84 -20 89 -23 104 -13 51 36 -33 30 -34 33 -12 29
49 -9 42 9 -19 47 -47 30 -65 37 -74 28 -8 -9 -5 -16 12 -30 37 -30 26 -40
-25 -23 -27 8 -61 28 -78 44 l-30 29 32 -9 c23 -7 35 -6 42 3 8 9 1 18 -27 33
-20 12 -55 31 -77 43 -22 12 -48 28 -58 35 -17 12 -16 14 11 20 35 7 70 41 56
55 -5 5 -61 32 -124 60 -63 28 -122 58 -131 66 -11 10 -19 12 -23 5z"/>
<path d="M4890 17667 c0 -8 22 -31 49 -51 40 -28 52 -32 61 -21 8 10 2 18 -27
36 -21 12 -48 29 -60 37 -20 13 -23 12 -23 -1z"/>
<path d="M5360 17640 c-24 -15 30 -63 70 -62 46 1 49 10 12 43 -34 30 -56 35
-82 19z"/>
<path d="M5021 17406 c31 -53 60 -73 133 -89 70 -16 92 -15 80 4 -5 9 -171 95
-216 111 -15 6 -14 3 3 -26z"/>
<path d="M5197 17386 c9 -16 175 -116 192 -116 5 0 14 -7 21 -15 7 -8 21 -15
32 -15 15 0 18 5 13 23 -15 51 -133 121 -229 134 -33 4 -37 3 -29 -11z"/>
<path d="M5450 17365 c0 -7 10 -25 21 -40 17 -21 19 -29 9 -35 -27 -17 0 -37
71 -53 41 -8 76 -14 78 -11 14 13 -19 39 -45 36 -16 -1 -42 6 -58 17 l-29 20
36 17 c20 10 37 20 37 24 0 3 -27 12 -60 21 -45 12 -60 13 -60 4z"/>
<path d="M11064 17356 c-20 -9 -35 -25 -43 -46 -18 -52 -14 -67 20 -79 27 -9
33 -8 56 15 l25 26 34 -33 c53 -51 60 -26 17 59 -39 78 -50 84 -109 58z"/>
<path d="M5596 17335 c-2 -7 4 -21 14 -30 17 -15 24 -16 50 -5 33 13 41 40 13
41 -10 0 -30 2 -45 4 -16 2 -29 -2 -32 -10z"/>
<path d="M5026 17308 c36 -63 42 -67 104 -65 33 1 61 6 63 11 1 4 -34 21 -78
37 -91 32 -99 34 -89 17z"/>
<path d="M5661 17194 c-47 -10 -91 -37 -91 -54 0 -9 155 1 163 11 2 2 7 16 11
31 7 31 2 31 -83 12z"/>
<path d="M11135 17173 c-8 -8 -16 -21 -16 -29 -1 -8 -2 -20 -4 -26 -2 -15 34
-81 88 -162 l40 -59 20 24 20 24 -7 -42 c-3 -24 -4 -43 -1 -43 2 0 21 16 41
35 l36 36 -25 22 c-14 12 -36 29 -50 39 -16 11 -27 34 -36 71 -21 96 -70 146
-106 110z"/>
<path d="M5593 17091 c-50 -15 -99 -33 -107 -40 -24 -20 -19 -46 13 -83 15
-18 36 -57 45 -85 19 -58 31 -71 43 -49 5 8 25 16 46 18 20 1 37 5 37 8 0 3
-21 36 -45 74 -25 38 -45 77 -45 87 0 15 73 59 100 59 5 0 10 9 10 20 0 11 -1
20 -2 19 -2 0 -44 -13 -95 -28z"/>
<path d="M5745 17069 c-77 -27 -144 -50 -148 -52 -5 -1 1 -14 12 -28 l20 -25
119 38 c99 33 121 44 135 68 18 30 22 51 10 49 -5 0 -71 -23 -148 -50z"/>
<path d="M5718 16968 c-32 -15 -58 -32 -58 -37 0 -18 39 -18 69 0 26 16 59 57
49 63 -2 1 -29 -11 -60 -26z"/>
<path d="M5633 16822 c-23 -9 -44 -20 -47 -23 -4 -3 14 -23 39 -43 31 -26 46
-33 49 -24 10 31 17 108 9 107 -4 0 -27 -8 -50 -17z"/>
<path d="M6072 16610 c-35 -21 -46 -39 -40 -65 2 -13 12 -10 50 17 72 50 63
92 -10 48z"/>
<path d="M6123 16547 c-10 -12 -34 -41 -51 -64 l-33 -42 20 -32 20 -33 9 25
c6 13 22 55 37 92 30 74 29 89 -2 54z"/>
<path d="M5936 16484 l-38 -26 28 -29 c21 -22 31 -26 45 -18 32 17 40 45 25
82 -10 22 -14 22 -60 -9z"/>
<path d="M6427 16237 c-12 -31 14 -159 43 -216 10 -20 21 -57 25 -83 9 -59 28
-67 54 -24 29 46 26 74 -9 108 -16 15 -30 32 -30 36 0 4 11 24 25 44 36 53 47
84 32 95 -14 11 -116 53 -127 53 -4 0 -10 -6 -13 -13z"/>
<path d="M6696 15931 c-30 -33 -29 -66 3 -100 29 -31 55 -39 65 -22 4 7 -38
127 -48 139 -2 1 -10 -6 -20 -17z"/>
<path d="M6554 15884 c-8 -19 -16 -52 -17 -72 -2 -30 2 -38 18 -40 31 -4 60
69 45 114 -15 43 -27 43 -46 -2z"/>
<path d="M18325 15889 c-34 -32 -39 -80 -16 -136 17 -42 34 -43 27 -3 l-4 31
46 -7 c26 -4 57 -11 70 -15 23 -9 23 -8 18 38 -2 27 -5 62 -5 80 -1 24 -5 31
-16 27 -8 -3 -17 -15 -21 -26 -5 -15 -8 -17 -14 -8 -5 7 -6 19 -3 27 3 7 0 13
-6 13 -6 0 -11 -6 -12 -12 0 -7 -3 -22 -5 -33 -3 -11 -6 -25 -7 -32 -2 -7 -7
-16 -11 -20 -5 -4 -6 16 -3 44 3 29 2 55 -1 57 -4 2 -20 -9 -37 -25z"/>
<path d="M6740 15735 c0 -25 38 -92 55 -99 48 -18 75 54 35 94 -25 25 -90 28
-90 5z"/>
<path d="M6946 15615 c-23 -24 -28 -52 -14 -82 19 -40 52 -38 56 4 3 26 8 32
29 35 l25 3 -22 28 c-24 30 -51 35 -74 12z"/>
<path d="M18410 15590 c1 -8 7 -42 14 -75 11 -52 13 -57 21 -35 13 41 8 82
-14 104 -16 15 -21 17 -21 6z"/>
<path d="M18615 15178 c-16 -12 -45 -37 -63 -55 -30 -30 -33 -39 -31 -81 4
-64 16 -98 43 -116 31 -20 46 -4 46 46 0 28 7 44 25 60 30 26 31 34 6 41 -13
3 -18 12 -16 23 2 11 4 23 4 28 1 5 10 1 21 -9 19 -18 20 -17 21 6 1 13 2 35
3 49 1 32 -21 35 -59 8z"/>
<path d="M14826 14768 c-12 -47 -3 -128 15 -128 12 0 49 75 49 98 0 20 -29 52
-47 52 -6 0 -13 -10 -17 -22z"/>
<path d="M18690 14620 c0 -67 1 -70 20 -60 30 16 36 57 15 97 -10 18 -22 33
-27 33 -4 0 -8 -32 -8 -70z"/>
<path d="M12412 13766 c-6 -13 -20 -27 -31 -31 -12 -3 -24 -17 -27 -30 -3 -13
-16 -26 -29 -29 -14 -3 -53 -41 -89 -83 l-64 -77 19 -38 c22 -44 10 -51 -17
-10 l-18 27 -6 -25 c-4 -14 -3 -29 2 -34 10 -12 10 -37 0 -54 -7 -10 -256
-129 -327 -156 -19 -7 -19 -8 4 -20 19 -10 35 -11 82 -1 33 7 61 10 63 6 3 -4
-26 -17 -62 -30 -96 -34 -192 -80 -192 -91 0 -6 2 -10 4 -10 2 0 20 -7 41 -16
20 -8 34 -11 31 -6 -12 20 44 52 165 96 179 65 204 76 299 141 120 81 177 131
182 159 8 42 -36 22 -133 -62 -84 -72 -239 -171 -239 -153 0 5 47 46 104 92
92 74 104 87 98 109 -5 22 -4 24 11 11 26 -21 87 23 87 62 0 24 2 26 19 17 19
-10 19 -9 4 36 -9 25 -20 43 -27 41 -47 -20 -45 -21 -34 22 10 41 22 52 31 29
3 -9 15 -3 36 16 l31 30 0 -26 c0 -24 32 -48 65 -48 22 0 11 44 -24 96 -17 26
-31 51 -31 56 0 17 -17 7 -28 -16z"/>
<path d="M12538 13749 c-23 -19 -25 -24 -16 -56 5 -20 11 -45 14 -56 5 -30 12
-32 34 -12 16 14 19 27 16 64 -2 25 -4 54 -5 64 -1 22 -11 22 -43 -4z"/>
<path d="M19719 13572 c-5 -64 -5 -82 3 -83 4 -1 14 -2 21 -3 14 -2 36 31 37
56 0 15 -59 45 -61 30z"/>
<path d="M14545 13336 c-22 -19 -38 -37 -35 -40 3 -3 34 5 69 18 l64 23 -24
16 c-30 22 -27 22 -74 -17z"/>
<path d="M16539 13365 c-3 -2 -3 -20 -1 -40 3 -26 9 -35 23 -35 22 0 23 -9 8
-43 -9 -20 -6 -33 16 -77 14 -28 25 -54 23 -55 -2 -2 -34 42 -71 98 -102 154
-94 145 -112 119 -17 -23 -22 -23 -172 3 -71 12 -73 12 -90 -11 l-17 -23 -32
20 c-33 20 -50 14 -33 -11 15 -25 10 -29 -25 -23 -50 8 -83 -3 -99 -33 l-14
-26 -194 -3 c-214 -3 -239 -5 -384 -41 -55 -14 -107 -27 -115 -28 -8 -2 -27 6
-41 17 -24 17 -30 18 -55 5 -27 -13 -34 -11 -95 19 -101 49 -114 51 -127 14
l-11 -30 -42 39 c-81 78 -182 84 -334 22 -52 -21 -49 -18 -47 -57 l3 -33 -40
19 c-48 23 -51 23 -51 4 0 -8 -13 -21 -30 -30 -16 -9 -30 -19 -30 -23 0 -5 13
-28 28 -53 15 -24 32 -50 36 -57 5 -8 -11 -1 -35 14 -46 28 -61 46 -66 77 -5
32 -23 58 -46 66 -31 12 -37 6 -27 -32 23 -91 24 -89 -15 -50 -36 36 -64 38
-45 2 15 -27 -4 -59 -35 -59 -22 0 -24 -3 -18 -31 l6 -31 -44 27 c-41 26 -58
42 -59 55 0 3 19 15 43 28 42 22 97 93 97 126 0 15 -10 17 -70 15 -61 -2 -68
-4 -60 -19 8 -15 4 -17 -30 -15 l-40 2 0 -106 c0 -103 -13 -129 -23 -48 -6 48
-8 50 -49 42 -38 -7 -36 -1 -42 -147 -3 -85 -37 -90 -50 -7 -7 43 -25 62 -27
27 -1 -27 -6 -80 -8 -89 0 -4 -9 -9 -18 -11 -16 -4 -18 2 -17 52 1 35 9 72 23
98 20 40 20 44 6 73 -20 38 -39 33 -42 -12 -2 -19 -11 -77 -20 -129 -16 -85
-20 -95 -40 -98 -21 -3 -23 0 -23 47 0 47 -10 65 -25 41 -16 -25 -23 -4 -24
71 -1 94 -6 107 -32 83 -14 -13 -19 -14 -19 -3 0 7 -7 33 -16 56 -17 43 -43
58 -45 26 0 -10 -2 -27 -4 -38 -2 -11 -6 -45 -8 -75 -7 -72 -23 -123 -47 -152
l-20 -23 15 37 c18 45 33 174 25 208 l-6 25 -8 -23 c-4 -13 -17 -33 -27 -43
-10 -10 -19 -33 -19 -49 0 -33 -64 -208 -82 -225 -17 -16 -2 57 22 106 23 47
37 146 26 176 -7 16 -9 15 -21 -7 -7 -14 -36 -86 -65 -160 -52 -134 -65 -159
-75 -148 -6 6 33 112 66 182 23 45 23 49 7 76 -10 17 -13 32 -7 35 17 11 9 25
-13 25 -30 0 -45 -11 -49 -34 -2 -11 -22 -29 -44 -40 -30 -16 -51 -40 -84 -94
l-43 -73 -29 27 c-32 30 -32 31 -53 -11 l-15 -29 -10 27 c-9 24 -13 25 -41 16
-16 -6 -28 -15 -25 -19 3 -5 -13 -39 -36 -77 -23 -37 -51 -83 -61 -102 l-19
-34 37 22 36 22 -6 -28 c-11 -42 -23 -50 -131 -83 -120 -36 -135 -37 -75 -5
35 18 41 25 28 30 -9 4 -31 4 -50 1 -18 -3 -55 -8 -83 -12 -65 -8 -68 -10 -50
-43 16 -31 12 -41 -17 -41 -19 0 -20 0 -22 75 -1 49 -1 50 -40 56 -34 6 -39 4
-50 -20 -6 -14 -18 -26 -26 -25 -23 1 -51 -16 -77 -46 -22 -27 -73 -46 -73
-29 0 5 7 9 15 9 18 0 18 7 4 49 -12 33 -23 39 -36 17 -4 -7 -37 -46 -73 -86
-87 -98 -90 -102 -79 -122 7 -14 0 -19 -42 -33 -42 -14 -55 -15 -74 -5 -35 19
-73 4 -97 -35 -23 -40 -51 -51 -92 -36 -15 6 -29 11 -31 11 -1 0 -8 -29 -15
-65 -11 -61 -30 -89 -30 -46 0 25 -24 49 -56 57 -41 10 -46 -6 -27 -84 9 -39
13 -75 9 -79 -4 -4 -28 14 -52 40 -55 57 -80 65 -53 15 9 -17 6 -25 -21 -49
-37 -34 -43 -35 -67 -10 -18 19 -18 19 -36 -5 -16 -21 -16 -25 -3 -30 9 -3 16
-10 16 -15 0 -5 -16 -2 -36 6 -46 19 -44 19 -44 -6 0 -34 -17 -56 -70 -88 -49
-30 -50 -32 -35 -55 9 -13 13 -30 9 -39 -7 -20 -53 -50 -79 -53 -11 -1 -42
-11 -70 -22 -45 -18 -51 -24 -64 -66 -13 -40 -18 -46 -42 -46 -35 0 -79 -50
-79 -91 0 -32 -30 -69 -57 -69 -13 0 -14 3 -5 12 17 17 15 24 -8 25 -31 3 -34
-8 -45 -135 -4 -44 -8 -89 -10 -99 -2 -10 -4 -31 -5 -48 -1 -29 -1 -29 -15
-11 -18 24 -19 59 -4 85 18 28 4 68 -26 73 -24 5 -25 3 -26 -41 0 -25 -2 -84
-4 -131 -1 -47 -3 -102 -4 -123 l-1 -39 -26 31 c-21 25 -29 29 -44 21 -10 -6
-21 -10 -24 -10 -5 0 2 49 10 62 8 12 -8 10 -56 -7 -52 -18 -50 -18 -50 1 0
20 -5 18 -114 -44 -59 -34 -95 -49 -109 -45 -60 14 -75 14 -90 -2 -26 -26 -20
-35 23 -35 58 0 52 -24 -11 -45 -45 -15 -53 -22 -70 -62 -10 -25 -35 -63 -54
-86 -30 -35 -33 -43 -21 -56 25 -30 27 -53 6 -97 -21 -42 -49 -62 -70 -49 -5
3 1 25 17 53 l27 48 -24 32 c-15 20 -32 32 -47 32 -30 0 -29 -11 2 -40 14 -13
25 -30 25 -38 0 -23 -49 -107 -70 -120 -18 -11 -20 -9 -20 14 0 27 0 27 -17 7
-10 -11 -41 -32 -70 -46 -28 -15 -61 -41 -74 -58 l-23 -32 28 7 27 7 -16 -32
c-13 -25 -21 -30 -38 -24 -12 4 -38 9 -57 12 l-35 4 33 -31 c20 -18 30 -35 26
-43 -7 -11 -151 -180 -196 -231 -19 -21 -21 -28 -18 -63 0 -12 -11 -40 -25
-61 -22 -33 -25 -44 -16 -61 18 -32 13 -59 -15 -84 l-26 -24 39 -19 c30 -15
38 -25 40 -49 3 -28 2 -28 -7 -7 -9 22 -11 22 -35 6 -26 -17 -26 -17 -6 -38
29 -31 39 -66 30 -100 -7 -24 -5 -34 12 -52 l20 -22 -25 -20 c-31 -24 -32 -33
-6 -57 28 -26 25 -44 -10 -56 -16 -6 -30 -13 -30 -16 0 -8 44 -68 52 -71 4 -2
8 -9 8 -16 0 -7 9 -22 20 -34 l20 -22 51 21 c60 23 77 19 22 -5 -72 -31 -88
-42 -91 -58 -2 -12 7 -19 33 -24 l36 -6 -20 -22 c-27 -29 -20 -35 31 -28 l42
5 -22 -30 c-27 -37 -28 -56 -4 -50 29 9 96 20 110 20 27 -1 32 -4 32 -19 0
-10 -6 -13 -18 -10 -14 5 -24 -4 -40 -33 l-23 -40 31 -57 c16 -31 30 -62 30
-68 0 -6 -12 -19 -27 -28 l-28 -17 44 -7 c39 -6 42 -8 26 -20 -10 -7 -22 -15
-27 -16 -9 -3 4 -36 82 -203 21 -44 52 -115 69 -157 34 -81 69 -125 113 -140
16 -6 66 -56 118 -119 111 -132 138 -154 220 -175 61 -15 131 -51 145 -74 16
-26 70 -41 153 -44 89 -3 188 -30 222 -61 19 -17 32 -11 23 11 -7 20 -2 18 77
-20 102 -50 190 -63 262 -40 19 6 19 5 0 -33 -22 -43 -23 -40 48 -92 41 -30
45 -31 57 -15 7 10 13 28 13 40 0 32 14 37 55 20 40 -17 42 -22 19 -48 -19
-20 -23 -18 83 -43 l72 -17 -16 -33 c-23 -49 -10 -97 40 -150 41 -42 45 -44
90 -39 37 3 47 1 47 -11 0 -10 10 -15 30 -15 17 0 30 -3 30 -7 0 -5 -5 -37
-10 -73 -5 -36 -12 -94 -16 -130 -4 -35 -15 -83 -25 -105 -19 -40 -19 -40 -15
-8 4 31 3 33 -22 27 -148 -35 -250 -108 -208 -149 9 -9 16 -21 16 -27 0 -5
-39 -57 -86 -115 -85 -105 -92 -122 -45 -123 34 0 -2 -13 -44 -15 -25 -2 -56
-10 -68 -19 -41 -28 -61 -46 -56 -49 53 -38 78 -60 74 -66 -2 -5 -35 -8 -72
-7 -107 2 -118 -3 -115 -50 l3 -40 -101 -59 c-84 -50 -97 -61 -76 -63 14 -2
26 -7 26 -11 0 -4 -28 -23 -62 -41 -157 -82 -141 -155 68 -320 l74 -58 -60 -7
c-33 -4 -60 -12 -60 -18 0 -5 11 -25 26 -44 33 -43 61 -43 125 2 63 43 77 44
71 6 -3 -24 -10 -30 -38 -35 -36 -7 -43 -14 -50 -49 -3 -21 0 -23 46 -22 27 1
46 -3 44 -7 -3 -4 -11 -8 -19 -8 -29 0 -64 -24 -73 -50 -14 -39 -2 -52 34 -41
59 19 94 21 94 7 0 -8 -44 -31 -107 -56 -60 -24 -114 -47 -120 -53 -23 -17 -4
-25 39 -16 58 11 58 11 52 -5 -3 -8 -24 -22 -46 -30 -37 -15 -39 -18 -33 -49
4 -20 22 -46 48 -69 36 -33 39 -38 20 -38 -12 0 -33 4 -46 9 -30 12 -35 8 -29
-24 3 -16 11 -25 23 -25 10 0 26 -9 36 -20 16 -16 18 -35 17 -132 -1 -62 2
-122 6 -133 5 -14 1 -24 -15 -37 l-23 -18 25 -50 c25 -50 40 -60 102 -66 45
-4 56 -16 39 -43 -16 -27 -53 -27 -76 0 -24 29 -48 40 -96 46 -22 2 -45 8 -51
13 -5 4 -22 6 -37 3 l-28 -5 30 -38 c16 -20 27 -40 23 -43 -3 -3 -23 3 -44 14
-22 11 -39 17 -39 14 0 -3 14 -32 31 -65 18 -35 29 -70 27 -86 -3 -25 -8 -28
-47 -31 -25 -2 -46 -5 -48 -7 -2 -1 6 -20 16 -42 24 -49 51 -130 51 -151 0
-12 -7 -14 -31 -9 l-30 6 20 -26 c21 -26 17 -53 -9 -69 -18 -11 -12 -90 9
-112 l20 -21 -47 -12 c-47 -12 -47 -12 -22 -25 36 -20 78 -18 92 4 11 18 14
17 49 -17 43 -40 43 -55 -1 -42 -27 8 -30 6 -30 -15 0 -13 4 -26 9 -29 17 -11
34 -94 24 -123 -5 -15 -6 -44 -3 -63 8 -48 2 -66 -26 -79 -43 -19 -59 -101
-34 -176 9 -28 17 -36 30 -32 30 8 40 -7 46 -66 5 -48 4 -57 -9 -57 -26 0 -30
-18 -35 -155 l-4 -132 60 -29 c59 -28 60 -29 56 -67 -4 -42 14 -83 68 -155 37
-50 43 -104 14 -125 -18 -13 -18 -14 0 -22 36 -15 54 -12 87 16 l34 28 19 -22
c10 -12 27 -35 37 -50 17 -27 20 -28 36 -13 17 15 21 14 55 -29 l37 -45 -41 0
c-36 0 -46 -6 -88 -50 -26 -27 -51 -50 -55 -50 -4 0 -12 11 -17 25 -5 14 -14
25 -20 25 -10 0 -14 -14 -28 -96 l-9 -52 35 15 c52 22 48 10 -13 -36 -50 -38
-55 -45 -55 -81 0 -22 -3 -40 -7 -40 -4 0 -20 12 -35 27 l-28 27 -1 -25 c0
-13 -2 -45 -5 -71 -2 -27 -1 -48 1 -48 2 0 12 14 20 31 26 50 29 26 4 -41 -22
-61 -22 -63 -4 -96 27 -50 13 -50 -32 -1 -43 46 -80 131 -90 203 -3 24 -7 44
-9 44 -2 0 -18 -9 -36 -20 -18 -11 -35 -20 -38 -20 -4 0 -11 15 -18 32 -7 18
-19 42 -27 52 -15 19 -15 19 -40 -4 -30 -28 -33 -71 -9 -120 21 -41 7 -53 -54
-47 -35 4 -45 1 -58 -17 l-16 -21 6 21 c8 25 -8 34 -47 27 -22 -4 -24 -8 -15
-22 6 -11 8 -33 4 -54 -5 -28 -13 -38 -31 -43 -42 -10 -49 1 -14 23 36 24 31
29 -31 36 l-35 3 33 13 c37 15 37 14 15 48 -16 24 -16 26 1 39 11 7 23 15 28
16 5 2 4 17 -2 34 l-11 32 -63 -34 -64 -33 -13 32 c-18 44 -26 48 -84 41 -45
-5 -54 -3 -89 26 -22 17 -46 28 -54 25 -7 -3 -15 -5 -17 -5 -2 0 0 -12 4 -27
13 -49 0 -69 -40 -65 -107 12 -127 10 -165 -15 -37 -26 -37 -26 -14 -35 21 -8
57 -14 105 -17 16 -1 17 -3 5 -10 -15 -8 -42 -14 -125 -27 -22 -3 -45 -9 -52
-13 -17 -9 120 -131 154 -137 39 -7 48 -19 44 -60 -5 -64 35 -87 149 -84 41 2
104 1 140 -1 36 -2 108 -4 160 -3 75 1 89 -1 65 -9 -16 -5 -31 -11 -33 -12 -5
-5 -42 -110 -42 -121 0 -18 85 -64 125 -67 22 -2 46 -14 63 -30 l29 -27 18 20
c10 11 21 18 24 15 3 -4 15 -45 26 -92 l20 -86 67 -23 c80 -27 78 -29 103 84
14 59 22 77 53 104 l37 32 9 -37 c5 -20 15 -37 21 -37 20 0 32 20 27 45 -3 18
-14 28 -42 36 -35 11 -39 15 -45 58 -3 25 -9 56 -12 69 -4 19 -1 22 22 22 53
0 105 -88 105 -179 0 -21 -9 -36 -30 -53 -24 -19 -31 -32 -34 -73 -3 -28 -7
-57 -11 -66 -3 -9 1 -24 10 -33 18 -18 35 -13 35 9 0 20 22 65 31 65 5 0 5
-10 0 -22 -14 -39 -1 -85 43 -147 17 -24 41 -60 52 -80 15 -24 32 -38 52 -42
17 -3 42 -15 56 -27 27 -20 64 -20 78 2 4 6 16 -2 29 -19 70 -92 188 -189 355
-293 80 -50 80 -50 105 -31 24 18 24 18 54 -16 31 -35 53 -43 133 -44 24 -1
41 -5 40 -12 -2 -6 23 -33 55 -61 l57 -51 29 27 c28 26 28 27 58 10 26 -15 34
-16 62 -5 17 8 31 17 31 22 0 5 -18 18 -40 29 -30 16 -40 26 -40 45 0 22 4 25
34 25 37 0 39 -3 52 -72 4 -28 11 -38 25 -38 12 0 19 7 19 19 0 38 18 30 55
-25 22 -34 38 -72 41 -98 8 -69 19 -109 32 -114 15 -5 15 12 2 57 -5 19 -8 36
-6 38 2 2 17 -18 34 -44 l31 -47 10 26 c14 37 57 41 94 8 41 -36 53 -32 49 16
l-4 42 74 -14 c40 -8 79 -14 86 -14 6 0 12 -5 12 -11 0 -8 -13 -10 -37 -6 -21
3 -32 3 -25 0 9 -4 8 -12 -5 -34 -21 -36 -13 -45 24 -26 55 28 72 30 70 7 -1
-13 -10 -23 -27 -26 -93 -21 -92 -17 -10 -59 41 -21 101 -56 133 -79 58 -41
59 -41 150 -41 l92 0 16 -36 c20 -43 25 -45 107 -48 67 -3 135 14 129 32 -1 5
-24 16 -50 24 -54 16 -78 45 -70 85 7 39 29 55 38 29 12 -40 34 -23 52 39 18
65 18 65 60 49 58 -22 104 -22 133 -1 l27 21 11 -22 c6 -12 13 -31 17 -43 5
-20 36 -42 65 -48 45 -8 99 -28 108 -39 6 -7 21 -43 33 -80 12 -37 25 -67 30
-67 4 0 11 16 15 35 5 27 2 41 -11 55 -16 17 -16 19 4 30 15 8 21 21 21 48 l1
37 20 -25 c11 -14 29 -35 40 -47 17 -21 18 -23 1 -24 -9 -1 -20 -1 -24 0 -12
2 -10 -9 13 -56 11 -24 25 -40 30 -37 5 3 7 9 4 14 -3 4 5 11 18 14 12 3 43
12 69 20 44 14 47 13 65 -6 18 -20 18 -20 -22 -17 -35 4 -40 2 -37 -16 6 -32
16 -36 53 -21 29 12 37 12 61 0 16 -8 28 -18 28 -23 0 -17 48 -28 135 -30 50
-1 107 -4 127 -7 28 -3 37 0 40 12 2 12 13 8 49 -21 41 -32 49 -34 74 -25 49
19 169 14 241 -10 50 -17 79 -21 122 -16 32 3 62 5 69 6 6 0 13 15 15 33 l3
32 65 1 c57 0 67 -2 86 -24 25 -30 30 -32 167 -37 135 -6 162 5 179 69 20 75
26 79 103 65 84 -14 172 -6 227 22 29 15 50 19 72 14 17 -3 51 -8 76 -11 77
-8 90 -13 84 -29 -8 -19 17 -19 83 0 57 17 101 48 113 79 8 20 8 20 19 -8 8
-19 16 -26 27 -22 9 3 27 9 40 12 28 7 30 16 9 34 -26 21 -17 38 38 74 28 19
68 48 87 65 30 26 60 40 60 27 0 -2 -12 -24 -26 -50 -14 -25 -23 -46 -20 -46
3 0 27 8 53 19 26 10 72 18 101 19 45 0 52 -3 52 -20 0 -16 -5 -18 -34 -13
-29 6 -36 3 -46 -15 l-12 -22 104 3 c95 3 103 2 100 -14 -3 -16 2 -18 30 -13
18 3 40 14 50 25 14 18 79 41 159 56 11 2 29 7 39 10 10 3 44 -2 76 -11 80
-23 118 -10 202 71 37 36 72 64 77 64 6 1 23 -17 39 -39 17 -22 35 -40 42 -40
12 0 124 40 187 68 36 16 55 51 20 38 -26 -10 24 40 64 65 35 22 83 34 83 22
0 -5 -11 -25 -25 -45 -14 -20 -25 -41 -25 -47 0 -27 23 -13 102 63 64 62 103
91 152 112 62 27 65 30 68 66 l3 38 49 -61 50 -61 27 33 c27 33 27 34 8 45
-19 10 -19 12 16 38 33 25 39 27 52 13 13 -13 12 -19 -13 -56 -15 -23 -25 -43
-23 -45 2 -2 18 -7 35 -10 38 -8 47 2 64 71 11 51 33 65 29 20 -4 -56 1 -79
16 -73 8 3 22 9 30 12 19 8 12 -14 -22 -69 -31 -49 -20 -53 99 -32 51 9 109
19 128 22 52 9 55 25 7 47 l-42 20 37 6 c49 9 68 26 68 63 0 28 -2 29 -32 24
-18 -4 -44 -9 -57 -13 -36 -11 -17 12 30 37 32 16 44 18 55 8 8 -6 14 -8 14
-5 0 4 13 -2 29 -13 34 -25 51 -27 52 -6 1 8 2 21 3 28 1 16 106 19 127 3 9
-6 22 -22 29 -35 l13 -25 14 37 c13 33 19 37 50 37 l35 0 -7 -50 c-6 -41 -4
-51 9 -56 22 -8 24 -5 32 42 3 21 8 41 11 44 3 3 30 5 61 5 l57 0 28 53 c16
28 32 52 37 52 5 0 37 13 72 29 35 16 88 40 118 54 30 13 64 33 75 43 11 11
70 60 130 109 61 49 112 92 115 95 3 3 28 23 55 45 28 22 55 44 61 50 6 5 129
107 274 225 l263 215 -48 21 c-28 12 -65 20 -87 18 -60 -4 -54 13 8 21 57 7
83 11 143 21 62 10 20 19 -76 16 -66 -3 -93 0 -88 7 3 6 15 11 25 11 24 0 50
10 50 20 0 4 -25 11 -55 15 -30 3 -55 9 -55 13 0 3 10 17 23 30 12 14 18 23
12 20 -5 -4 -23 0 -40 7 -24 11 -26 14 -10 14 21 1 45 18 45 32 0 4 -11 6 -25
3 -14 -2 -36 2 -48 11 -12 8 -17 15 -12 16 194 14 229 18 244 34 14 13 12 15
-9 15 -14 0 -70 3 -125 6 -136 8 -151 26 -19 22 117 -3 128 9 36 40 -31 10
-58 24 -60 31 -3 9 2 11 14 7 35 -11 93 -15 98 -7 6 9 -20 22 -102 53 -29 11
-52 22 -50 24 2 2 21 5 42 8 50 6 52 10 27 42 -12 15 -20 29 -18 31 2 2 23 6
46 9 46 6 45 8 25 -67 -4 -13 3 -14 55 -5 51 8 66 7 100 -9 23 -10 41 -22 41
-27 0 -12 -14 -10 -67 11 -50 19 -69 20 -99 3 -16 -9 -14 -12 17 -32 30 -19
44 -21 112 -17 43 3 80 7 83 10 2 2 -10 30 -28 61 l-33 57 -62 -5 c-35 -3 -63
-1 -63 3 0 15 80 44 113 41 91 -7 197 4 209 23 4 7 -4 21 -20 33 -15 12 -37
31 -50 42 -13 12 -29 19 -37 16 -8 -3 -15 7 -19 31 -4 20 -14 39 -22 42 -19 7
-18 16 6 43 24 28 25 26 -1 61 l-20 29 25 0 c16 0 26 -6 26 -14 0 -8 7 -17 16
-20 16 -6 16 -29 0 -67 -11 -25 81 -89 128 -89 27 0 34 -3 30 -15 -4 -9 3 -19
19 -26 14 -6 31 -25 38 -41 15 -36 36 -48 72 -41 35 7 45 23 23 38 -24 18 -28
55 -10 83 11 17 19 21 28 13 10 -8 20 1 45 40 17 28 31 52 31 54 0 1 -17 -1
-37 -6 -21 -4 -39 -6 -42 -4 -8 8 67 75 85 76 11 1 40 1 67 0 53 -3 61 11 17
29 -48 20 -57 37 -26 51 31 15 33 25 6 39 -20 11 -20 11 1 51 11 23 19 42 17
44 -2 2 -31 -2 -65 -8 l-63 -12 15 -29 c20 -39 16 -67 -12 -77 -19 -7 -23 -5
-23 13 0 18 -4 20 -35 15 -26 -4 -35 -2 -36 9 -1 8 -2 20 -3 27 -1 11 -54 12
-65 2 -5 -6 68 -155 77 -155 23 1 43 30 37 56 l-5 29 14 -30 c17 -36 8 -53
-44 -82 l-37 -22 -12 40 c-10 32 -16 39 -29 34 -9 -3 -29 -9 -44 -12 -25 -5
-40 -32 -20 -34 4 0 22 -2 40 -4 49 -5 48 -11 -3 -25 -25 -7 -45 -17 -45 -21
0 -10 4 -11 70 -14 25 -1 50 -3 56 -4 16 -2 -6 -111 -22 -111 -7 0 -19 18 -25
40 -13 43 -22 48 -45 25 -13 -12 -19 -11 -50 7 -23 14 -33 26 -29 36 3 8 -3
21 -14 29 -11 7 -18 19 -16 26 2 6 6 29 9 49 3 21 7 43 8 50 2 10 -12 13 -54
11 -59 -2 -70 5 -44 26 10 9 25 10 48 3 26 -7 42 -5 68 7 51 24 48 38 -7 35
-58 -2 -72 4 -41 20 20 10 23 19 23 70 l-1 58 29 -32 c22 -25 27 -38 22 -61
-8 -35 2 -36 62 -11 46 18 52 39 11 34 -21 -3 -29 3 -42 29 -9 18 -16 35 -16
39 0 11 94 40 130 40 16 0 39 -5 50 -12 26 -16 31 -8 20 30 -7 26 -4 43 16 87
13 31 24 58 24 61 0 2 -12 9 -27 15 -22 8 -24 12 -13 19 8 6 24 10 36 10 28 0
58 35 59 68 0 20 8 31 32 43 18 9 40 22 49 30 14 11 13 15 -8 31 l-23 18 27 0
c20 0 36 -12 63 -44 l36 -44 -30 -63 c-17 -35 -28 -65 -26 -67 8 -8 57 33 70
59 23 43 21 111 -2 151 l-20 35 52 31 c55 33 89 40 100 21 4 -5 0 -18 -9 -28
-16 -17 -16 -19 -1 -25 29 -11 57 -6 71 12 12 15 13 15 9 -8 -15 -79 -15 -80
0 -80 9 0 23 17 31 37 8 21 19 47 24 58 12 28 38 116 41 140 2 11 -1 42 -5 69
-5 30 -3 58 4 75 11 26 56 61 80 61 23 0 43 31 55 87 2 10 29 128 60 263 30
135 60 268 67 295 6 28 14 64 18 80 4 17 3 44 -2 60 -4 17 -4 44 1 60 5 17 12
56 14 87 5 48 3 58 -12 63 -16 5 -22 29 -24 96 0 18 -5 25 -16 22 -9 -2 -22 1
-30 6 -12 8 -11 18 8 64 32 78 30 107 -13 177 -38 61 -40 85 -11 120 7 8 15
27 19 42 5 21 1 30 -16 42 -19 14 -21 19 -10 36 17 28 15 31 -13 24 -31 -8
-32 3 -4 32 17 18 20 30 15 57 -6 31 -9 33 -36 29 -34 -5 -38 7 -11 32 11 10
28 38 39 64 20 46 25 69 37 167 10 76 15 107 21 117 3 5 -5 17 -17 27 -22 18
-22 21 -11 72 12 52 12 53 -18 84 -36 37 -46 81 -30 131 8 24 9 39 3 41 -6 2
-19 10 -29 18 -18 13 -17 14 14 21 36 7 38 11 17 38 -13 17 -13 22 0 42 13 21
9 30 -61 148 -71 121 -74 127 -59 149 15 23 14 25 -27 52 -41 27 -42 29 -20
38 28 13 28 44 0 67 -15 12 -22 30 -24 56 -1 22 -16 79 -33 128 -17 49 -29 91
-28 93 2 1 17 -3 34 -9 16 -6 39 -8 49 -4 20 8 17 12 -32 42 -15 9 -12 13 26
36 46 27 42 47 -4 23 -53 -28 -64 8 -13 40 47 29 48 66 4 110 -19 19 -46 35
-59 36 -23 0 -23 0 -2 11 21 10 21 11 -15 76 -20 37 -42 68 -49 68 -6 1 -17 2
-23 3 -14 1 -5 99 11 115 6 6 25 11 43 12 69 3 80 4 75 10 -7 6 -12 7 -81 19
-26 4 -59 16 -73 28 l-26 20 34 15 33 14 -27 12 -28 12 27 27 28 27 -38 0
c-43 0 -50 17 -9 26 63 14 77 21 77 40 0 17 -7 19 -54 16 -30 -1 -60 3 -67 9
-19 15 -11 148 11 191 18 38 18 38 0 38 -9 0 -15 9 -15 22 0 23 -30 103 -85
228 -18 41 -36 96 -40 123 l-6 47 35 -21 c33 -19 35 -22 21 -41 -13 -19 -12
-23 10 -39 28 -23 44 -24 73 -3 l23 16 -23 22 c-13 12 -31 37 -41 56 -17 31
-19 32 -63 26 -54 -7 -58 14 -5 25 62 13 57 26 -13 31 -62 6 -70 24 -17 37 23
6 59 16 81 21 53 14 51 32 -2 30 -62 -3 -63 -2 -42 21 19 21 19 21 -10 44
l-29 23 39 11 c21 6 45 11 52 11 20 0 13 20 -10 29 -13 4 -43 9 -68 10 -24 0
-52 4 -62 7 -36 11 -16 20 43 19 l61 -1 -5 33 c-5 28 -2 35 24 50 16 10 29 20
29 23 -1 3 -23 23 -50 44 -28 22 -50 43 -50 48 0 4 -15 8 -32 8 -31 0 -33 2
-31 32 1 18 2 40 2 50 1 11 13 18 39 23 20 3 44 10 52 16 13 8 13 10 0 18 -49
30 -55 39 -42 60 11 20 10 21 -20 21 -18 0 -40 6 -48 13 -20 15 -60 72 -60 84
0 5 26 11 57 12 50 2 55 0 43 -13 -7 -9 -19 -16 -27 -16 -29 0 -6 -23 57 -56
35 -18 66 -32 68 -30 2 3 -2 15 -9 27 -7 13 -14 37 -16 53 -4 39 -25 60 -74
76 -36 12 -39 15 -20 22 19 7 20 11 10 30 -19 38 -50 67 -84 78 -27 9 -31 15
-27 35 2 15 -3 31 -14 42 -16 17 -16 18 20 26 30 8 37 13 34 31 -2 15 -12 23
-38 27 l-35 6 28 11 c16 7 33 12 38 12 5 0 9 3 9 7 0 10 -102 103 -112 103 -5
0 -8 7 -8 15 0 13 4 14 21 5 36 -20 36 1 0 30 l-34 29 26 12 c31 14 34 27 10
45 -23 16 -158 8 -190 -12 -29 -18 -30 -18 -36 6 -4 16 4 22 52 35 90 25 89
25 66 37 -24 14 -62 17 -97 7 -21 -6 -28 -4 -28 7 0 8 4 14 9 14 5 0 11 6 14
13 3 9 -2 13 -15 13 -18 -1 -27 21 -73 190 -46 165 -57 194 -85 222 -17 18
-35 32 -40 32 -11 0 -144 99 -148 111 -2 4 17 11 43 14 25 4 48 11 51 16 9 16
-39 69 -63 69 -32 0 -29 -12 10 -35 l32 -20 -54 -3 c-29 -2 -60 -1 -69 3 -13
5 -13 8 2 23 24 28 20 33 -24 30 -51 -3 -62 9 -22 23 36 12 41 25 14 33 -10 3
-19 16 -19 28 -1 13 -5 33 -7 44 -4 14 0 24 10 28 12 5 13 10 4 27 -10 17 -9
20 7 19 45 -5 48 -2 45 45 -2 25 -8 45 -13 45 -9 0 -10 -3 -13 -32 0 -7 -18
-14 -39 -16 l-38 -3 19 38 c27 52 62 131 62 137 0 3 -18 4 -39 2 -55 -5 -58 3
-11 34 41 27 43 40 6 40 -42 0 -47 14 -16 47 18 19 28 38 24 47 -3 9 -1 16 5
16 32 0 -10 59 -53 74 -10 3 -41 3 -68 0 l-50 -7 5 -39 c3 -30 2 -36 -8 -28
-20 17 -23 45 -9 79 11 26 18 31 34 26 39 -13 78 -8 114 14 20 13 36 26 36 31
0 16 -35 16 -66 2 -22 -10 -46 -12 -78 -8 -55 9 -64 19 -30 35 19 8 24 16 19
29 -19 45 -17 50 17 57 18 3 48 11 66 17 27 8 31 12 21 24 -6 8 -19 12 -28 9
-9 -2 -23 0 -31 5 -12 7 -12 12 -2 22 19 19 15 34 -13 46 -26 12 -35 54 -15
67 21 13 8 46 -40 96 l-49 53 -11 -30 c-13 -33 -15 -78 -5 -124 6 -29 10 -32
36 -26 21 4 29 2 29 -8 0 -24 -89 -50 -107 -32 -3 2 -6 31 -8 64 -4 67 -19
104 -60 144 -17 17 -24 32 -19 40 8 13 7 80 -2 111 -3 10 -15 17 -29 17 -45 0
-48 -25 -25 -188 14 -91 14 -93 -9 -115 l-22 -22 10 28 c16 42 13 74 -8 89
-10 7 -18 24 -17 38 1 20 -6 27 -32 36 l-34 11 29 18 28 19 -35 14 -34 14 23
13 24 12 -26 18 c-23 14 -26 22 -21 49 10 50 6 94 -10 119 -9 13 -13 35 -11
50 5 23 1 27 -22 33 -16 3 -66 24 -113 46 -47 23 -100 47 -117 55 -33 13 -39
26 -27 57 5 14 9 14 37 -1 18 -9 34 -19 37 -23 3 -3 40 -29 82 -58 79 -52 89
-53 95 -7 3 17 -10 25 -72 49 -89 34 -153 73 -161 99 -4 12 2 28 16 42 l23 24
-37 17 c-44 21 -45 28 -7 44 37 15 46 38 25 61 -9 10 -17 36 -18 56 -1 35 -5
40 -61 74 -33 20 -61 35 -63 34 -2 -2 1 -19 6 -39 12 -43 -6 -51 -31 -13 -14
21 -13 25 4 48 23 29 24 49 4 75 -21 28 -19 31 29 38 l44 7 -26 54 c-29 58
-47 70 -91 60 -34 -7 -44 -26 -32 -58 4 -12 11 -34 15 -49 l6 -27 -52 24 c-58
27 -80 30 -109 15 -18 -10 -74 -89 -67 -95 2 -1 28 -10 58 -19 96 -30 110 -38
110 -57 0 -25 -12 -24 -100 11 -41 16 -80 29 -87 30 -8 0 -3 -18 12 -49 34
-66 31 -71 -13 -28 l-38 37 -19 -38 c-47 -91 -65 -113 -85 -107 -11 4 -32 9
-47 11 -16 3 -46 9 -68 14 -62 15 -70 13 -54 -7 7 -10 10 -15 5 -11 -5 4 -31
-2 -60 -12 -92 -36 -138 -24 -157 40 -7 22 -16 40 -20 40 -5 0 -22 -13 -39
-30 -40 -39 -59 -49 -106 -51 -51 -3 -66 6 -62 39 2 21 -1 26 -15 24 -12 -2
-23 9 -35 39 l-18 43 -17 -25 c-11 -15 -20 -20 -25 -14 -4 6 -22 32 -40 58
l-33 47 -82 0 -83 0 -67 -56 c-38 -31 -71 -54 -74 -51 -3 4 -13 34 -22 67
l-17 61 -24 -50 c-13 -28 -29 -51 -36 -51 -10 0 -11 6 -4 26 16 40 12 51 -20
63 -33 11 -34 9 -33 -61 1 -37 -13 -35 -33 4 -14 28 -17 29 -26 14 -5 -10 -14
-31 -19 -48 -8 -28 -5 -35 26 -64 l35 -33 -62 21 c-75 25 -78 27 -55 39 11 6
17 22 17 42 0 32 -1 32 -18 11 -9 -12 -35 -25 -56 -29 l-39 -6 26 31 c15 17
27 35 27 39 0 8 -46 36 -84 51 -24 9 -26 8 -16 -9 11 -22 -2 -71 -20 -71 -6 0
-13 14 -16 30 -4 17 -10 30 -13 30 -4 0 -20 -13 -36 -30 -38 -39 -49 -38 -42
5 5 28 2 37 -15 46 -28 15 -57 5 -102 -33 -29 -25 -46 -32 -70 -29 -17 1 -32
4 -34 6 -2 2 4 19 12 38 17 42 5 53 -31 29 -17 -10 -36 -12 -69 -7 -43 6 -45
5 -42 -16 2 -15 -3 -23 -14 -25 -12 -1 -18 4 -18 16 0 27 -17 33 -32 12 -20
-29 -47 -22 -74 17 l-24 36 0 -33 0 -33 -47 7 c-27 3 -54 11 -60 16 -9 7 -13
7 -13 -1 0 -6 -6 -11 -14 -11 -12 0 -13 7 -5 32 14 51 12 61 -28 102 -37 38
-37 38 -54 17 l-17 -21 -41 33 c-37 29 -49 58 -42 100 1 8 -33 10 -40 2z
m-2959 -545 c0 -5 -7 -10 -16 -10 -8 0 -12 5 -9 10 3 6 10 10 16 10 5 0 9 -4
9 -10z m-453 -105 c-7 -20 -37 -17 -37 3 0 16 -6 20 -25 17 -28 -3 -30 3 -13
41 l12 26 33 -38 c18 -22 31 -43 30 -49z m-592 -185 c-3 -5 -12 -10 -18 -10
-7 0 -6 4 3 10 19 12 23 12 15 0z m-395 -110 c12 -8 11 -10 -7 -11 -13 -1 -28
-2 -35 -3 -6 -1 -13 5 -15 12 -5 14 35 16 57 2z"/>
<path d="M17180 13187 c0 -13 54 -47 75 -47 7 0 18 6 25 14 9 12 4 17 -32 26
-24 6 -49 13 -55 15 -7 2 -13 -1 -13 -8z"/>
<path d="M17413 13188 l-32 -10 22 -34 c12 -19 25 -34 29 -34 10 0 38 55 38
75 0 17 -11 18 -57 3z"/>
<path d="M18352 13138 c-26 -13 -39 -54 -25 -77 15 -25 49 -25 66 -1 16 22 16
30 3 68 -8 25 -11 25 -44 10z"/>
<path d="M19955 12448 c4 -62 8 -120 11 -128 3 -13 18 -15 76 -12 40 2 79 5
86 8 17 5 10 29 -9 29 -20 0 -42 52 -45 108 -3 63 -41 107 -92 107 l-33 0 6
-112z"/>
<path d="M20170 12312 l0 -40 38 5 c63 8 65 16 12 46 l-50 28 0 -39z"/>
<path d="M20205 12228 c-16 -47 -12 -71 15 -101 34 -38 50 -29 46 26 -4 70
-47 122 -61 75z"/>
<path d="M20400 11720 l-35 -31 48 4 c58 5 62 8 40 36 l-18 22 -35 -31z"/>
<path d="M10185 11361 c-42 -19 -64 -52 -59 -86 2 -14 -6 -26 -26 -37 -27 -15
-30 -22 -30 -66 0 -46 2 -49 40 -71 22 -12 40 -21 41 -19 1 3 9 53 13 83 3 17
11 20 52 21 74 2 72 0 68 43 -4 44 -41 151 -52 151 -4 0 -25 -9 -47 -19z"/>
<path d="M9911 10968 c-7 -24 -15 -51 -17 -60 -9 -29 22 -21 50 13 30 35 32
51 10 73 -23 24 -30 20 -43 -26z"/>
<path d="M8560 10863 c-9 -2 -21 -18 -28 -36 -11 -28 -10 -34 5 -44 9 -7 20
-13 23 -13 5 0 50 84 50 95 0 4 -24 3 -50 -2z"/>
<path d="M9727 10707 c-3 -9 11 -22 39 -35 53 -26 50 -26 58 -7 4 10 -8 21
-39 35 -52 24 -51 24 -58 7z"/>
<path d="M21375 9262 c-3 -3 -5 -11 -5 -19 0 -9 17 -13 60 -13 59 0 82 15 38
24 -43 9 -88 13 -93 8z"/>
<path d="M3645 6402 c-16 -1 -66 -10 -110 -18 -96 -19 -192 -25 -223 -13 -14
6 -49 5 -85 -1 -34 -5 -80 -12 -102 -15 -22 -3 -51 -8 -63 -11 -13 -3 -43 -7
-65 -10 -162 -22 -221 -41 -377 -125 -507 -270 -725 -472 -835 -774 -18 -48
-49 -106 -78 -144 -49 -65 -49 -65 -43 -125 18 -186 121 -414 265 -590 91
-110 168 -180 228 -207 24 -10 56 -28 72 -40 27 -20 34 -21 75 -10 111 28 153
8 258 -125 59 -74 102 -114 122 -114 6 0 44 -20 84 -45 40 -25 81 -45 91 -45
31 0 71 -18 111 -50 44 -35 60 -38 60 -10 0 27 12 25 41 -6 28 -30 99 -68 149
-79 19 -5 64 -9 100 -11 36 -1 76 -2 89 -3 21 -1 23 -5 18 -31 -6 -28 -3 -31
58 -62 44 -21 62 -35 55 -42 -19 -19 297 -127 412 -141 47 -6 64 -14 104 -50
40 -37 72 -52 194 -95 231 -82 294 -117 320 -181 11 -26 17 -30 39 -26 17 4
33 -1 46 -13 12 -11 38 -19 65 -21 68 -4 73 -7 55 -35 -15 -24 -15 -24 24 -24
30 0 45 -7 69 -31 23 -23 55 -38 143 -64 194 -57 240 -67 324 -66 100 1 173
22 249 72 32 21 62 37 66 34 4 -2 10 -18 13 -33 19 -92 133 -142 232 -101 17
7 35 13 41 14 33 7 194 90 228 117 30 24 40 28 47 17 5 -8 9 -17 9 -21 0 -5 5
-8 10 -8 6 0 10 6 9 13 -4 34 1 37 54 33 31 -3 65 1 84 9 34 14 58 48 49 70
-6 17 9 28 62 45 45 14 49 19 31 37 -9 9 -5 18 16 35 23 20 27 32 28 76 2 46
4 52 20 48 14 -3 24 9 47 59 40 87 52 91 47 16 -4 -60 -3 -61 32 -84 26 -17
37 -33 39 -53 1 -16 4 -38 6 -49 3 -11 5 -23 5 -27 2 -15 48 -8 64 10 8 9 20
36 26 60 11 41 24 50 48 34 6 -4 14 -42 17 -84 5 -77 5 -78 -19 -78 -41 0 -34
-24 14 -47 38 -18 47 -19 54 -7 5 9 0 22 -12 36 l-21 22 38 13 c20 7 38 13 39
13 9 0 23 44 18 59 -4 13 -13 16 -35 13 -17 -2 -30 0 -31 4 -4 48 -4 66 3 70
4 3 8 -4 8 -15 0 -32 16 -33 69 -6 47 23 50 27 41 51 -14 35 -14 36 23 29 32
-6 32 -6 57 60 25 66 74 136 110 155 16 9 16 3 -5 -63 -36 -111 -69 -195 -108
-272 -44 -89 -58 -141 -59 -221 -1 -64 -1 -64 -29 -64 -31 0 -34 -6 -20 -29 8
-12 19 -13 79 -1 68 12 70 14 81 50 17 58 55 90 105 89 22 -1 32 -4 21 -6 -19
-3 -53 -58 -43 -68 2 -3 21 -11 41 -20 l37 -15 46 70 c25 39 55 75 66 79 13 4
48 0 87 -11 36 -10 77 -17 91 -15 20 2 10 10 -50 38 -41 20 -82 39 -90 42 -8
4 0 6 17 4 30 -3 34 0 44 32 18 55 20 56 47 11 31 -53 41 -39 33 50 -6 64 -6
65 24 80 23 12 29 21 26 40 -3 26 -30 68 -69 110 -42 46 -65 91 -65 131 0 83
32 58 45 -33 6 -45 14 -68 29 -80 12 -10 25 -18 29 -18 11 0 31 82 26 108 -6
25 1 28 29 9 11 -8 32 -21 46 -30 l25 -17 0 50 -1 49 -43 -1 c-24 0 -47 3 -52
8 -6 7 -80 219 -80 231 0 2 6 3 14 3 8 0 28 -40 51 -100 l37 -100 32 27 31 26
10 -45 c6 -25 16 -53 24 -62 8 -10 15 -39 16 -65 1 -42 7 -55 49 -103 44 -52
49 -55 87 -51 21 2 39 0 39 -5 0 -5 -30 -36 -66 -67 -65 -58 -66 -58 -42 -71
21 -12 22 -13 3 -14 -11 -1 -32 -4 -46 -6 -25 -4 -27 -2 -23 28 10 101 12 138
5 138 -4 0 -27 -18 -52 -40 -30 -27 -38 -40 -27 -40 25 0 32 -19 15 -38 -8 -9
-20 -28 -27 -41 -11 -21 -8 -27 21 -57 18 -18 31 -36 28 -38 -2 -2 -21 4 -41
14 -42 20 -44 17 -23 -20 22 -38 18 -66 -14 -102 -28 -32 -28 -32 -13 -77 19
-60 32 -73 32 -34 0 43 14 48 55 23 19 -12 47 -23 62 -26 37 -7 96 -26 108
-36 13 -11 73 -10 96 2 25 14 24 45 -3 64 -12 8 -46 23 -75 32 -33 10 -61 27
-70 40 -14 22 -11 27 46 105 l61 83 -22 24 -23 23 25 19 c36 28 54 24 73 -15
17 -35 17 -36 -8 -47 -24 -11 -24 -12 -9 -35 14 -23 14 -26 -1 -43 -21 -23
-14 -35 25 -48 33 -12 35 -10 20 18 -15 27 -2 30 70 15 106 -23 99 -27 115 75
3 19 10 59 15 89 6 30 10 56 10 58 0 3 10 3 22 1 17 -2 28 7 46 40 l24 42 -21
36 c-26 44 -26 46 5 34 36 -14 36 -13 20 18 -7 15 -17 42 -21 60 -9 45 -42 64
-102 60 -47 -3 -48 -4 -63 -48 -8 -25 -23 -59 -33 -77 -9 -18 -17 -43 -17 -55
0 -15 -18 -42 -49 -72 l-49 -48 -16 23 c-15 21 -14 26 9 64 43 74 38 165 -9
165 -21 0 -25 -5 -28 -32 -4 -39 -21 -40 -99 -7 -48 21 -50 24 -69 88 -10 36
-21 85 -23 109 -5 43 -29 82 -53 82 -8 0 -20 16 -28 35 -8 19 -20 35 -25 35
-16 0 -13 -15 10 -65 12 -25 19 -48 16 -52 -11 -10 -58 27 -68 55 -19 49 -18
162 1 162 4 0 27 -29 50 -65 32 -49 47 -64 59 -60 9 4 29 9 44 12 40 8 42 23
12 83 -26 51 -39 55 -47 15 -3 -16 -9 -11 -27 23 l-22 44 -57 -7 c-31 -4 -59
-9 -62 -11 -3 -3 -9 -28 -15 -56 l-10 -50 -27 22 -28 21 -1 -35 c-1 -20 -3
-40 -4 -46 -1 -5 -3 -14 -4 -20 -2 -19 -41 -49 -56 -44 -22 9 -19 24 14 75 15
25 34 63 41 85 7 21 23 63 36 92 30 66 39 119 25 154 -9 25 -8 29 19 43 21 11
32 27 40 55 5 22 15 58 20 80 8 30 16 40 31 40 18 0 20 4 14 33 -13 62 -14 64
-41 59 -19 -3 -31 3 -55 31 l-30 36 -76 -55 c-42 -30 -79 -54 -84 -54 -13 0
-15 43 -4 73 9 25 7 31 -15 48 -29 22 -65 40 -135 64 -49 17 -115 69 -115 90
0 6 -41 26 -91 44 -74 26 -93 30 -100 19 -6 -9 -9 -7 -9 10 0 50 -28 91 -90
131 -34 22 -67 38 -73 36 -7 -2 -28 -6 -47 -9 -100 -16 -135 -30 -152 -64 -24
-50 -47 -71 -83 -78 -17 -3 -32 -11 -32 -17 0 -7 -4 -41 -8 -77 -4 -36 -8 -70
-8 -77 -1 -26 -15 -1 -21 37 -5 35 -9 40 -26 36 -11 -3 -29 -9 -40 -12 -16 -4
-20 -1 -20 16 0 20 -2 20 -24 -7 -13 -15 -73 -95 -134 -178 -62 -82 -121 -161
-132 -175 -11 -14 -41 -65 -68 -115 l-47 -90 -3 45 c-3 42 24 150 38 150 4 0
12 11 18 25 7 14 29 49 51 78 60 81 131 226 131 268 0 14 -145 -32 -168 -54
-13 -12 -33 -42 -44 -67 l-20 -44 -15 27 c-11 23 -17 26 -33 17 -17 -9 -18 -7
-11 18 4 15 6 57 5 95 -2 62 1 74 42 155 39 76 43 92 35 115 -6 15 -15 27 -21
27 -5 0 -13 0 -17 0 -5 0 -9 -4 -9 -10 -1 -5 -2 -16 -3 -22 -3 -28 -19 19 -26
77 -7 60 -18 86 -37 82 -5 -1 -15 6 -21 15 -14 22 9 48 63 73 46 21 46 26 -3
115 -78 143 -111 171 -174 152 -44 -14 -49 -11 -57 32 -9 46 -50 89 -120 124
-67 34 -85 33 -109 -9 -12 -22 -23 -30 -39 -27 -18 2 -29 19 -53 80 -16 43
-34 82 -40 86 -5 5 -46 24 -90 42 -62 26 -95 33 -147 34 -64 1 -68 2 -77 28
-12 33 -33 45 -91 51 -25 3 -76 20 -115 37 -54 25 -88 33 -150 37 -91 5 -182
31 -340 95 -179 74 -293 108 -445 133 -47 8 -193 12 -245 7z"/>
<path d="M7326 4863 c-14 -14 -3 -25 49 -49 65 -28 75 -29 75 -9 0 8 -2 15 -4
15 -2 0 -28 11 -59 24 -30 14 -58 22 -61 19z"/>
<path d="M7810 4449 c-19 -6 -38 -14 -43 -18 -4 -4 3 -55 15 -114 17 -81 27
-109 40 -113 10 -3 30 -21 44 -40 24 -31 53 -45 55 -26 0 4 2 15 4 25 2 9 -14
41 -36 69 -37 50 -49 91 -30 102 5 3 18 -9 28 -27 21 -35 43 -41 101 -32 l34
6 -51 26 c-59 29 -74 51 -75 108 -1 35 -4 40 -26 42 -14 1 -41 -3 -60 -8z"/>
<path d="M8180 4345 c0 -7 60 -89 61 -84 13 65 3 89 -37 89 -13 0 -24 -2 -24
-5z"/>
<path d="M8035 4223 c4 -10 10 -27 13 -37 3 -11 22 -49 44 -85 54 -93 52 -104
-15 -76 -43 18 -60 3 -27 -23 14 -11 19 -23 15 -35 -9 -23 -31 -22 -67 4 -16
12 -32 19 -35 16 -12 -13 -4 -54 17 -90 l23 -38 23 22 23 21 31 -22 c28 -20
35 -21 81 -10 l50 12 -6 83 c-7 80 -6 83 13 78 44 -11 32 62 -23 137 -37 50
-49 58 -60 40 -9 -15 -61 -12 -75 5 -17 21 -34 19 -25 -2z"/>
<path d="M10601 3976 l-32 -33 41 -16 41 -16 -2 45 c-2 25 -6 47 -9 49 -4 2
-21 -11 -39 -29z"/>
<path d="M8320 3951 c-21 -6 -25 -14 -28 -46 -4 -60 24 -105 76 -124 37 -13
44 -14 52 -1 5 8 5 21 0 29 -4 9 -8 19 -9 24 0 4 -8 34 -18 67 -17 62 -21 65
-73 51z"/>
<path d="M7918 3846 c-33 -26 -33 -25 -7 -87 21 -48 52 -66 61 -37 4 11 -18
138 -25 144 -1 1 -14 -8 -29 -20z"/>
<path d="M10664 3753 c12 -34 16 -38 42 -35 36 5 46 14 38 35 -5 14 -59 37
-86 37 -4 0 -1 -17 6 -37z"/>
<path d="M8559 3651 c-18 -23 -38 -41 -46 -41 -13 0 -14 -42 -2 -55 7 -6 111
14 121 24 7 6 -21 93 -34 106 -3 4 -21 -12 -39 -34z"/>
<path d="M8640 3544 c0 -30 -30 -71 -60 -84 -23 -10 -28 -16 -20 -25 8 -9 8
-15 0 -20 -6 -3 -32 9 -58 29 -26 19 -54 36 -61 38 -9 2 -20 -25 -34 -82 -21
-79 -24 -84 -53 -92 -30 -8 -31 -9 -24 -53 4 -25 9 -47 11 -50 3 -2 21 -5 42
-7 39 -2 53 -19 15 -17 -29 2 -141 -11 -150 -17 -23 -14 12 -32 85 -44 105
-16 121 -24 84 -41 -33 -15 -33 -17 -4 -53 22 -27 107 -59 132 -50 6 3 21 26
35 52 13 26 38 70 55 97 31 51 34 62 24 80 -4 6 -9 23 -13 39 -6 24 -2 33 28
61 34 30 35 33 24 68 -8 27 -8 47 1 76 14 47 1 83 -35 100 -20 9 -24 8 -24 -5z"/>
<path d="M8891 3419 c-33 -25 -41 -37 -37 -53 3 -12 6 -28 6 -36 1 -12 4 -11
15 4 8 10 12 23 9 27 -13 22 17 6 57 -30 40 -35 43 -40 32 -64 -6 -14 -9 -34
-6 -46 7 -27 -13 -51 -42 -51 -17 0 -25 7 -30 28 -10 46 -39 75 -74 75 -40 0
-48 -9 -28 -31 26 -28 21 -32 -18 -16 l-35 14 -23 -37 c-20 -31 -22 -42 -14
-61 9 -20 4 -28 -46 -76 -31 -29 -57 -58 -57 -63 0 -24 39 -55 90 -73 l55 -20
-88 3 c-48 1 -87 0 -87 -2 0 -2 26 -28 57 -57 41 -39 64 -54 85 -54 15 0 28 3
29 8 1 14 9 58 14 80 5 22 10 23 56 18 27 -3 55 -8 60 -12 6 -4 -10 -25 -38
-49 -47 -42 -47 -44 -28 -59 85 -67 236 -29 250 62 11 68 30 117 54 140 34 31
50 28 67 -15 8 -21 19 -46 24 -55 8 -15 3 -19 -33 -29 -23 -7 -48 -14 -55 -15
-44 -8 -44 -13 -3 -65 22 -28 39 -55 36 -59 -3 -4 -21 -15 -41 -25 l-37 -17
70 -34 c38 -19 83 -36 99 -40 27 -5 30 -3 32 24 1 20 -6 41 -24 62 -15 17 -25
32 -23 33 2 1 13 7 24 13 22 12 25 27 13 62 -7 20 -6 21 12 12 11 -6 20 -15
20 -20 0 -6 4 -10 9 -10 5 0 9 13 9 29 -1 40 6 47 61 66 53 17 86 46 78 68 -3
8 -21 22 -41 31 -20 9 -36 19 -36 22 0 3 25 3 55 0 34 -3 55 -2 55 5 0 5 -7
12 -15 15 -9 4 -33 36 -54 73 -54 91 -81 114 -141 121 l-49 5 54 70 c57 73 57
81 0 86 -69 6 -102 -33 -109 -129 -4 -59 -4 -61 24 -71 27 -9 29 -13 24 -48
-4 -37 -37 -76 -59 -70 -5 2 -14 32 -21 67 -6 35 -15 66 -20 67 -5 2 -31 18
-59 35 -44 29 -47 33 -27 36 25 4 42 36 42 80 0 24 -4 27 -35 28 -24 0 -44 9
-63 27 -16 15 -30 27 -33 27 -3 0 -24 -14 -48 -31z"/>
<path d="M10639 3433 c0 -10 -2 -27 -4 -38 -5 -24 20 -65 39 -65 7 0 19 14 27
31 10 27 10 36 -2 58 -18 32 -59 41 -60 14z"/>
<path d="M21576 3328 l-26 -43 23 -6 c26 -6 41 11 52 59 10 48 -18 42 -49 -10z"/>
<path d="M10093 3343 c-72 -18 -81 -38 -25 -52 32 -8 51 -9 118 -2 16 1 23 35
12 55 -11 19 -24 19 -105 -1z"/>
<path d="M10299 3265 c-17 -38 -19 -52 -10 -72 14 -31 37 -39 72 -25 26 9 30
8 34 -11 3 -12 3 -31 1 -42 -5 -28 13 -75 30 -76 8 -1 30 -1 49 -1 78 0 84 1
91 26 14 58 -83 177 -171 210 -28 10 -56 23 -63 29 -9 7 -17 -3 -33 -38z"/>
<path d="M8052 3162 c-10 -7 -4 -16 22 -35 38 -29 56 -33 73 -16 23 23 -65 70
-95 51z"/>
<path d="M6840 3106 c-24 -14 -23 -14 30 -30 29 -9 56 -14 58 -11 3 3 -1 16
-8 30 -15 28 -42 32 -80 11z"/>
<path d="M8200 3081 c0 -3 12 -17 26 -32 l25 -27 -52 5 c-42 4 -51 2 -43 -9 6
-7 27 -39 49 -70 21 -32 40 -58 42 -58 3 0 25 16 49 36 l44 37 -37 26 -38 26
53 5 54 5 -24 21 c-37 34 -65 45 -108 42 -22 -1 -40 -4 -40 -7z"/>
<path d="M7510 3005 c0 -2 15 -12 33 -23 39 -24 117 -33 147 -17 21 11 21 13
-17 28 -34 13 -163 23 -163 12z"/>
<path d="M7816 2982 c-10 -16 -17 -100 -9 -105 5 -3 32 14 60 37 l51 43 -49
15 c-27 9 -51 13 -53 10z"/>
<path d="M9674 2970 c-12 -5 -59 -7 -105 -5 -84 4 -84 4 -59 -15 39 -30 103
-43 180 -38 39 3 73 8 77 12 10 9 -34 52 -54 53 -10 0 -28 -3 -39 -7z"/>
<path d="M21110 2960 c-42 -5 -43 -6 -23 -18 31 -17 72 -14 113 8 l35 19 -40
-2 c-22 -1 -60 -4 -85 -7z"/>
<path d="M8410 2934 c-19 -48 -15 -51 57 -50 54 1 68 5 71 18 2 11 -13 21 -58
36 l-61 21 -9 -25z"/>
<path d="M21387 2887 c-25 -8 -27 -12 -22 -45 3 -20 7 -37 8 -38 1 -1 24 17
51 42 33 29 44 45 35 48 -19 6 -39 4 -72 -7z"/>
<path d="M7625 2880 c-11 -17 4 -26 63 -37 46 -9 52 -8 52 7 0 13 -11 19 -39
24 -22 3 -46 9 -54 12 -8 3 -18 0 -22 -6z"/>
<path d="M9394 2856 c-65 -21 -67 -23 -39 -64 28 -40 27 -45 -12 -46 -42 -2
-38 -27 10 -62 l43 -30 27 27 c36 37 35 59 -3 59 -23 0 -30 5 -30 19 0 29 22
41 63 34 32 -5 37 -3 37 13 -1 20 -33 64 -47 63 -4 0 -26 -6 -49 -13z"/>
<path d="M10807 2829 c-17 -10 -17 -12 -1 -30 10 -11 29 -18 49 -17 17 1 37
-2 43 -6 15 -9 15 6 0 39 -8 19 -19 25 -42 25 -17 0 -39 -5 -49 -11z"/>
<path d="M10170 2821 c0 -6 0 -12 1 -13 0 -2 -4 -15 -10 -29 -9 -25 -8 -27 41
-43 81 -26 168 -18 168 15 0 22 -10 23 -63 8 -36 -10 -40 -8 -87 31 -28 23
-50 37 -50 31z"/>
<path d="M9535 2720 c-11 -18 6 -27 63 -33 49 -6 52 -5 52 17 0 20 -5 23 -54
25 -32 1 -57 -3 -61 -9z"/>
<path d="M9718 2709 c-25 -14 -22 -26 12 -44 39 -20 47 -19 77 11 21 21 23 28
12 35 -19 12 -80 11 -101 -2z"/>
<path d="M8746 2697 c9 -26 52 -42 82 -31 49 17 33 39 -30 42 -46 2 -57 0 -52
-11z"/>
<path d="M9401 2636 c-19 -7 -36 -17 -38 -22 -6 -18 56 -142 79 -158 28 -20
62 -20 78 -1 19 23 1 37 -41 33 -45 -4 -49 6 -14 36 34 30 48 78 28 105 -16
23 -42 25 -92 7z"/>
<path d="M21244 2603 c-15 -27 -34 -59 -43 -72 l-15 -24 32 17 c36 19 63 63
60 100 -1 14 -3 26 -4 26 -1 0 -15 -21 -30 -47z"/>
<path d="M9160 2600 c0 -17 43 -50 65 -50 25 0 68 39 44 41 -14 1 -33 4 -81
13 -16 3 -28 1 -28 -4z"/>
<path d="M9624 2579 c-16 -13 -31 -24 -33 -26 -3 -2 11 -19 29 -38 19 -20 44
-55 55 -78 17 -35 25 -42 54 -45 49 -5 64 15 23 30 -18 7 -32 15 -32 18 0 3
33 19 73 36 58 25 73 28 75 17 2 -8 -6 -24 -17 -34 -30 -28 -27 -36 25 -60 40
-19 50 -20 84 -10 40 12 56 29 63 72 5 23 3 24 -44 21 l-49 -4 0 39 c0 65 -9
70 -151 77 -119 6 -127 6 -155 -15z"/>
<path d="M10908 2432 l-26 -38 34 -22 c41 -27 43 -27 39 -4 -2 9 -4 36 -4 60
-1 23 -4 42 -8 42 -5 0 -20 -17 -35 -38z"/>
<path d="M10167 2404 c-16 -8 -27 -17 -25 -19 2 -2 30 -6 63 -10 33 -3 76 -8
95 -11 l35 -5 -26 27 c-33 33 -101 42 -142 18z"/>
<path d="M20830 2330 c0 -22 33 -60 51 -60 15 0 19 7 18 33 0 17 -3 26 -6 20
-3 -10 -11 -9 -34 2 -18 10 -29 11 -29 5z"/>
<path d="M20977 2332 c-18 -4 -18 -5 -1 -23 22 -24 46 -24 69 1 10 11 16 21
14 21 -11 4 -66 4 -82 1z"/>
<path d="M20672 2208 c-10 -10 -7 -18 18 -38 27 -22 30 -29 21 -51 -10 -28
-28 -38 -76 -45 -88 -13 -95 -15 -95 -34 0 -17 4 -18 26 -9 36 13 40 8 43 -45
1 -32 23 -53 69 -65 48 -14 59 -1 22 24 -42 28 -37 36 18 29 47 -5 48 -5 60
28 17 48 16 51 -15 43 -16 -4 -39 -9 -52 -11 -14 -3 -28 -7 -33 -10 -4 -3 -8
-1 -8 4 0 5 24 28 54 52 47 38 52 45 40 58 -8 8 -21 29 -29 48 -15 36 -41 44
-63 22z"/>
<path d="M20900 2171 c-30 -25 -33 -31 -21 -45 12 -14 17 -12 46 21 30 34 36
53 17 53 -4 0 -23 -13 -42 -29z"/>
<path d="M17297 263 c-2 -1 -32 -5 -67 -9 -36 -3 -69 -9 -74 -12 -16 -9 27
-32 63 -32 52 0 140 30 134 46 -4 11 -47 16 -56 7z"/>
<path d="M13553 203 c-22 -8 -14 -28 18 -52 17 -13 32 -21 33 -19 18 20 26 52
17 61 -6 6 -11 8 -11 4 0 -3 -10 -3 -22 2 -13 4 -29 6 -35 4z"/>
</g>
</svg>
